<?xml version="1.0" encoding="UTF-8"?>
<svg width="700" height="700" version="1.1" viewBox="0 0 700 700" xml:space="preserve" xmlns="http://www.w3.org/2000/svg" xmlns:xlink="http://www.w3.org/1999/xlink"><g transform="translate(2195.6 -465.05)"><path d="m875.53 702.24-2.6308-1.7447-33.739-27.295-16.254-13.705-29.648-25-17.238-15-31.297-27.596-34.562-33.16-24.766-26.244-12.234-15.082-16.759-24.128-13.434-24.202-9.6598-23.587-3.247-9.6562-3.2469-9.6562-2.0594-10.844-2.0594-10.844-2.0354-15.645v-24.125l1.0651-6.6153 1.0651-6.6153 3.1221-15.891 4.692-13.795 9.7277-18.478 14.745-19.791 13.083-12.799 20-14.005 20-9.548 18-5.2381 21.85-3.9542h17.239l29.215 5.8124 20.442 8.2012 16.255 9.8673 16.48 13.244 15.41 16.838 11.11 16.903 3.407 6.1346h5.0642l3.136-6.25 3.136-6.25 7.0742-10 21.183-21.664 11-8.4467 13.937-8.6955 20.424-8.557 20.639-4.9857 14.383-2.1506h13.984l27.633 5.093 18 6.1534 15 7.5497 17.361 12.38 19.722 20.324 9.1273 13 7.1242 13.135 6.0884 15.865 3.2344 12 1.1051 7 1.105 7 0.046 38-2.2736 16-1.9729 7.5-1.9728 7.5-2.1637 7.2827-2.1638 7.2827-9.8149 23.877-10.084 19.277-15.751 24.644-11.019 14.637-5.1008 5.5-3.5955-0.0372-19-15.976-4.5-5.0985v-4.0757l4-1.046v-1.6272l-14.567-7.0067-9.3686-8.2466-7.6378-9.1932-7.6377-9.1932-8.1443-9.8593-8.1442-9.8593-8-9.4992-13-15.686-26.997-29.971-18.003-15.801-11.812-8.111-20.188-9.4456-17-4.152-7-1.4476-48-0.072-14 2.3419-14 4.0257-16.279 8.0231-13.771 13.635-11.798 19.878-5.6084 9.1072-8.0138 4.504-17.53 4.9034-12 3.1956-19.819 6.1031-5.9388 5.3063 0.0482 27.158 1.0282 3.361 1.0281 3.361 2.3541 11 3.9397 8.2737 3.9397 8.2737 12.889 13.663 14.531 7.2572 15 3.031 25.88 0.00164 11.12-1.9248 17-2.2216 4.453-2.1665 13.441-24.648 9.8676-13.539 63.238-63.002 19.829-16.498h2.7341l1.0193 2.6562-4.2004 19.387-7.009 22.134 3.0483 8.9464 6.958 9.4788 15.105 10.697 5.8706 9.2003 7.8104 18.072 7.1218 11.133 10.531 8.7948 2.3412 2.2045 2.3412 2.2046v8.1353l-8.2697 16.456-7.675 11.309-7.492 6.1755-9.0634 2.8403-21.922 2.3117-2.7198 1.6066-2.7198 1.6066-1.5691 4.1086-1.5691 4.1086v13.455l4.0007 8.4782 8.4993 10.331 12.581 15.111 4.2655 6.9184 4.2655 6.9184 4.7052 13.821-0.62677 2.4973-0.62678 2.4973-22.564 18.274-31.897 26.132-2.1028-0.01zm43.353-203.8 0.55591-0.55591-2.0996-6.8413-4.5308-4.2564-2.2714 1.4038-1.8205 4.7884 1.0996 2.8656 7.3443 3.0487 1.1667 0.103zm-145.22-76.809v-2.3651l4.1452-5.2697h2.6216l0.60297 2.25 0.60298 2.25 0.0137 0.75 0.0136 0.75-4 4h-4z" fill="#eeba03"/><path d="m873.95 1007.3 5.7865-0.362 10.427 0.7321h-22zm-55.483-1.0064 10.303-0.3247 19.394 0.6525h-40zm102 0 10.303-0.3247 19.394 0.6525h-40zm-127.05-0.9858 4.25-0.3828 8.5 0.7656h-17zm163 0 4.25-0.3828 8.5 0.7656h-17zm-182.97-1.0062 5.2835-0.3684 9.433 0.7463h-20zm202 0 5.2835-0.3684 9.433 0.7463h-20zm-218.03-0.985 3.25-0.4033 3.25 0.4033 3.25 0.4034h-13zm237 0 3.25-0.4033 3.25 0.4033 3.25 0.4034h-13zm-250-1 3.25-0.4033 3.25 0.4033 3.25 0.4034h-13zm263 0 3.25-0.4033 3.25 0.4033 3.25 0.4034h-13zm-276-1 3.25-0.4033 3.25 0.4033 3.25 0.4034h-13zm289 0 3.25-0.4033 3.25 0.4033 3.25 0.4034h-13zm-298.99-0.9838 2.2617-0.43493 1.7383 0.45503 1.7383 0.4551-8-0.04zm312 0 2.2616-0.43493 1.7384 0.45503 1.7383 0.4551-8-0.04zm-323.51-1.009 2.75-0.41659 5.5 0.83318h-11zm333 0 2.75-0.41659 5.5 0.83318h-11zm-342.5-0.98947 2.25-0.43337 4.5 0.86673h-9zm353 0 2.25-0.43337 4.5 0.86673h-9zm-360.99-1.0015 2.2617-0.4349 3.4767 0.91016-8-0.0404zm370 0 2.2616-0.4349 1.7384 0.45508 1.7383 0.45508-8-0.0404zm-379.5-1.0103 2.7638-0.41792 4.4725 0.86313-10-0.0272zm388 0 2.7637-0.41792 4.4725 0.86313-10-0.0272zm-394.99-0.97541 1.769-0.46099 2.4619 0.99608-6-0.0742zm404 0 1.769-0.46099 1.231 0.49804 1.2309 0.49804-6-0.0742zm-412.52-1.0127 2.25-0.43337 4.5 0.86673h-9zm419 0 2.25-0.43337 4.5 0.86673h-9zm-430.75-1.2943-3.5-0.73672 5-0.148 8 1.6547-6-0.0332zm441.5-0.0574 4-0.82737 5 0.1148-8 1.6547-5-0.1148zm-450.25-1.632 1.75-0.45732 1.75 0.45732 1.75 0.45733h-7zm461 0 1.75-0.45732 1.75 0.45732 1.75 0.45733h-7zm-471.25-1.3107-3.5-0.73672 6-0.0266 6 1.5267-5-0.0266zm479.5 0 3-0.76337 6-6e-3 -8 1.6547-4-0.1214zm-487.23-1.693 1.769-0.46099 2.4619 0.99608-6-0.0742zm498 0 1.769-0.46099 1.231 0.49804 1.2309 0.49804-6-0.0742zm-503.52-0.96929 1.25-0.50439 2.5 1.0088h-5zm509 0 1.25-0.50439 2.5 1.0088h-5zm-514.48-1.0307 1.769-0.46099 2.4619 0.99608-6-0.0742zm520 0 1.769-0.46099 1.231 0.49804 1.2309 0.49804-6-0.0742zm-539.54-3.5308-13.774-3.0611 0.85819-0.85819 28.69 6.2157 2 0.76944-4-4e-3zm544.77 2.6811 1-0.38472 28.69-6.2157 0.4246 0.42452 0.4245 0.42452-28.971 6.294-1.2844-0.079-1.2844-0.0789zm-561.69-7.1405 1.3125-0.52522 0.60417 0.60416 0.60416 0.60417-1.9167-0.079-1.9167-0.0789zm597.19-0.86861 4.5-1.4179 3 0.1034-9 2.8358-3-0.1034zm-604-0.44828-2.5-0.80064 4-0.0588 4 1.7189-3-0.0588zm-12.5-3.4836-7-2.309 2-0.196 15 4.7904-3 0.0236zm631.5-0.10986 7.5-2.3952 2 0.187-15 4.7904-2-0.187zm-643-3.4065-1.5-0.96938 2 0.11 4 1.7189-3 0.11zm653.33 0.33333 0.6666-0.66666 0.6667 0.66666 0.6667 0.66667h-2.6667zm3-1 0.6666-0.66666 0.6667 0.66666 0.6667 0.66667h-2.6667zm-669.65-4.023-8.8126-3.5186 0.36328-0.36328 0.36328-0.36327 19.899 7.8306-3-0.067zm683.81-1.147 12-4.7454 16.718-8.9179 11.219-9.037 3.0314-4.9031 3.0313-4.9031v-12.466l1.4694 2.309-0.02 8-1.8786 4.137-1.8785 4.137-7.4342 8.2288-13.265 8.7636-12.727 6.3771-20.16 7.8564-2.1131-0.0914zm-369.18 1.0872 27.821-0.28242 54.358 0.5654-110-5.6e-4zm-48.071-0.98952 5.75-0.36082 11.5 0.72164h-23zm139 0 5.75-0.36082 11.5 0.72164h-23zm-165-1 5.75-0.36082 11.5 0.72164h-23zm191 0 5.75-0.36082 11.5 0.72164h-23zm-207.5-0.98441 3.25-0.40332 6.5 0.80664h-13zm229 0 3.25-0.40332 6.5 0.80664h-13zm-244.5-1.0051 3.75-0.39226 7.5 0.78452h-15zm259 0 3.75-0.39226 7.5 0.78452h-15zm-487.16-4.8186-8.4073-4.5136-9.5232-6.9907-3.2126-3.659-3.2126-3.659-3.693-8.1308 0.1028-4 0.10279-4 1.5246 10.439 5.3232 9.0834 11.808 9.4778 19.595 10.468-1-8.3e-4 -1-8.4e-4zm213.66 3.8236 3.25-0.40332 6.5 0.80664h-13zm289 0 3.25-0.40332 6.5 0.80664h-13zm-300-0.98233 2.25-0.43337 4.5 0.86673h-9zm313 0 2.25-0.43337 4.5 0.86673h-9zm-324.98-1.019 3.2679-0.40466 5.4642 0.82972-12-0.0204zm336 0 3.2679-0.40466 5.4642 0.82972-12-0.0204zm-346.02-0.981 2.25-0.43337 4.5 0.86673h-9zm357 0 2.25-0.43337 4.5 0.86673h-9zm-366-1 2.25-0.43337 4.5 0.86673h-9zm375 0 2.25-0.43337 4.5 0.86673h-9zm-385-1 2.25-0.43337 4.5 0.86673h-9zm395 0 2.25-0.43337 4.5 0.86673h-9zm-402.5-0.9836 1.75-0.45732 1.75 0.45732 1.75 0.45733h-7zm411 0 1.75-0.45732 1.75 0.45732 1.75 0.45733h-7zm-419.5-1.0164 2.25-0.43337 4.5 0.86673h-9zm427 0 2.25-0.43337 4.5 0.86673h-9zm-434.5-0.9836 1.75-0.45732 1.75 0.45732 1.75 0.45733h-7zm443 0 1.75-0.45732 1.75 0.45732 1.75 0.45733h-7zm-448.98-1.0037 1.769-0.46099 2.4619 0.99608-6-0.0742zm458.23-0.36438 4-0.82737 6 0.135-9 1.6014-5-0.0818zm-465.74-0.64989 2.2617-0.4349 3.4767 0.91016-8-0.0404zm-6.0117-0.95502 1.25-0.50439 2.5 1.0088h-5zm483 0 1.25-0.50439 2.5 1.0088h-5zm-489.5-1.027 1.75-0.45732 1.75 0.45732 1.75 0.45733h-7zm495 0 1.75-0.45732 1.75 0.45732 1.75 0.45733h-7zm-509.75-2.1276-8-1.5664 3-0.5652 18 3.7143-5-0.016zm524-0.27449 9-1.8572 3 0.53961-18.287 3.409-2.7134-0.23427zm-308.3-1.6524 8.6994-0.33256 18.601 0.6613-36 4e-3zm78 0 8.6994-0.33256 18.601 0.6613-36 4e-3zm-305.45-0.91845 1.25-0.50439 2.5 1.0088h-5zm198.04-0.0791 6.2892-0.35605 11.422 0.7193-24-8e-3zm144 0 6.2892-0.35605 11.422 0.7193-24-8e-3zm206.96 0.0791 1.25-0.50439 2.5 1.0088h-5zm-560.75-2.1079-6.5-1.5363 2-0.66148 15 3.7481-4-0.014zm188.28 1.0339 4.7802-0.37578 8.4396 0.76263-18-0.012zm190 0 4.7802-0.37578 8.4396 0.76263-18-0.012zm193.72-1.3576 7.5-1.874 2 0.63638-14.745 3.3316-2.2547-0.21987zm-398.23 0.36918 3.2679-0.40466 5.4642 0.82972-12-0.0204zm222 0 3.2679-0.40466 5.4642 0.82972-12-0.0204zm-237.52-1.0037 3.75-0.39226 7.5 0.78452h-15zm251 0 3.75-0.39226 7.5 0.78452h-15zm-261.99-0.98911 2.7638-0.41792 4.4725 0.86313-10-0.0272zm276 0 2.7637-0.41792 4.4725 0.86313-10-0.0272zm-432.45-0.96553 1.3125-0.52522 0.60417 0.60416 0.60416 0.60417-1.9167-0.079-1.9167-0.0789zm146.45-0.0345 2.7638-0.41792 4.4725 0.86313-10-0.0272zm296 0 2.7637-0.41792 4.4725 0.86313-10-0.0272zm149.55 0.0345 1.3125-0.52522 0.6042 0.60416 0.6042 0.60417-1.9167-0.079-1.9167-0.0789zm-596-1 1.3125-0.52522 0.60417 0.60416 0.60416 0.60417-1.9167-0.079-1.9167-0.0789zm140.45-0.0345 2.7638-0.41792 4.4725 0.86313-10-0.0272zm316 0 2.7637-0.41792 4.4725 0.86313-10-0.0272zm143.55 0.0345 1.3125-0.52522 0.6042 0.60416 0.6042 0.60417-1.9167-0.079-1.9167-0.0789zm-603.48-0.98356 0.66667-0.66666 0.66667 0.66666 0.66666 0.66667h-2.6667zm135.92-0.0227 1.75-0.45732 1.75 0.45732 1.75 0.45733h-7zm333 0 1.75-0.45732 1.75 0.45732 1.75 0.45733h-7zm138.08 0.0227 0.6666-0.66666 0.6667 0.66666 0.6667 0.66667h-2.6667zm-614.33-1.8333-3.5-1.3478h3l7 2.6957h-3zm134.75 0.79427 2.25-0.43337 4.5 0.86673h-9zm349 0 2.25-0.43337 4.5 0.86673h-9zm136.25-0.79427 3.5-1.3478h3l-7 2.6957h-3zm-492.75-0.18933 1.75-0.45732 1.75 0.45732 1.75 0.45733h-7zm365 0 1.75-0.45732 1.75 0.45732 1.75 0.45733h-7zm-370.98-1.0037 1.769-0.46099 2.4619 0.99608-6-0.0742zm378 0 1.769-0.46099 1.231 0.49804 1.2309 0.49804-6-0.0742zm-504.94-0.97368 0.66667-0.66666 0.66667 0.66666 0.66666 0.66667h-2.6667zm119.92-0.0227 1.75-0.45732 1.75 0.45732 1.75 0.45733h-7zm391 0 1.75-0.45732 1.75 0.45732 1.75 0.45733h-7zm122.08 0.0227 0.6666-0.66666 0.6667 0.66666 0.6667 0.66667h-2.6667zm-641.15-2.4816-5.3205-2.0441 0.76018-0.76018 10.881 4.1288 0.83333 0.82369-1.8333-0.1042zm119.32 1.1483-3-0.76337 5-0.0372 5 1.6013-4-0.0372zm407.5 0 2.5-0.80064 5 0.0372-6 1.5267-4 0.0372zm117.08 0.58816 0.4166-0.41185 10.881-4.1288 0.3786 0.3786 0.3786 0.37861-11.213 4.1953h-1.2583zm-531.33-2.2504 1.25-0.50439 2.5 1.0088h-5zm423 0 1.25-0.50439 2.5 1.0088h-5zm-426.94-1.0208 1.3125-0.52522 0.60417 0.60416 0.60416 0.60417-1.9167-0.079-1.9167-0.0789zm432 0 1.3125-0.52522 0.6042 0.60416 0.6042 0.60417-1.9167-0.079-1.9167-0.0789zm-445.97-3.2398-8.6571-2.7781-9.149-5.3617-1.0184-1.9029-1.0184-1.9029v-4.3291l6.0952-5.6938 15.84-6.1087h5.4132l-4.3486 4.6289v3.1262l1.4745 1.2237 1.4745 1.2237 11.551 4.9274-6-1.2767-7.8182-4.3533-2.1672-3.4931 2.624-4.2017-0.55339-0.55338-0.55338-0.55338-14.465 5.3404-6.618 4.4611-0.56484 2.1778-0.56483 2.1778 0.65665 2.0689 0.65664 2.0689 9.2475 5.4194 21.12 6.4957-4-0.0534zm199.98 2.1734 31.322-0.27912 61.356 0.55869-124-4.5e-4zm251.18-0.25042 2.5-0.80064 3-0.0588-4 1.7189-4-0.0588zm-553-0.5v-0.5h1v1h-1zm253.28-0.23627 4.7802-0.37578 8.4396 0.76263-18-0.012zm150 0 4.7802-0.37578 8.4396 0.76263-18-0.012zm260.72 0.23627v-0.5h1v1h-1zm-668.56-2.0552-1.9411-1.5552 5 2.3812 0.41667 0.36454 0.41666 0.36455h-1.9511zm236.31 0.81793 5.25-0.36728 10.5 0.73455h-21zm191 0 5.25-0.36728 10.5 0.73455h-21zm143.26-2.0878 7.5083-2.7131 7.3802-4.5612 1.2838-4.045-1.2004-4.783-8.4802-4.8684-12.548-4.4897-0.5453 0.54534-0.5454 0.54534 2.624 4.2017-1.0836 1.7466-1.0835 1.7465-7.8183 4.3533-6 1.2767 5.7755-2.4637 5.7756-2.4637 1.4744-1.2237 1.4745-1.2237v-3.1262l-4.3486-4.6289h5.4131l15.84 6.1087 6.0952 5.6938v4.3291l-1.0184 1.9029-1.0184 1.9029-8.623 5.0534-5.8266 2.0047-5.8267 2.0047-2.1869-0.112zm100.08 2.4605 0.4166-0.36454 5-2.3812-3.8822 3.1103h-1.9511zm-451.83-1.3639 3.75-0.39226 7.5 0.78452h-15zm229.48 7e-3 3.2277-0.40166 7.5446 0.78718-14 0.016zm-242.48-0.99453 2.75-0.41659 5.5 0.83318h-11zm257 0 2.75-0.41659 5.5 0.83318h-11zm-471.34-4.1782-5.4128-3.8945-3.6949-6.3494 1.0123-1.0122 0.62942 1.9831 0.62942 1.9831 8.4238 7.6844 5 3.3951-1.1744 0.105zm200.84 3.1711 3.25-0.40332 6.5 0.80664h-13zm283 0 3.25-0.40332 6.5 0.80664h-13zm203.25-0.98029 2.5-1.7963 8.4238-7.6844 0.6294-1.9831 0.6294-1.9831 1.0456 1.0455-2.2044 3.5666-2.2043 3.5666-4.1597 2.8158-4.1598 2.8158-3 1.433zm-496.24-4e-3 2.2617-0.4349 3.4767 0.91016-8-0.0404zm306 0 2.2616-0.4349 1.7384 0.45508 1.7383 0.45508-8-0.0404zm-539.76-1.2927v-1.3333l0.66667 0.66666 0.66666 0.66667-0.66666 0.66667-0.66667 0.66666zm224.26 0.28242 2.7638-0.41792 4.4725 0.86313-10-0.0272zm324 0 2.7637-0.41792 4.4725 0.86313-10-0.0272zm-332.5-0.98968 2.2617-0.4349 3.4767 0.91016-8-0.0404zm342 0 2.2616-0.4349 1.7384 0.45508 1.7383 0.45508-8-0.0404zm-354.26-1.2927-4-0.71619 6-0.1686 8 1.6547-6-0.0538zm361.75 0.31067 1.75-0.45732 1.75 0.45732 1.75 0.45733h-7zm-564.25-1.2011v-1.3354l14.5-14.274 6.5-3.6131v0.90458l-9.5 6.1073-8.2044 8.6012-1.6478 2.4725-1.6478 2.4725zm571.25 0.20107 1.75-0.45732 1.75 0.45732 1.75 0.45733h-7zm202.75-0.20252v-0.89184l-9.2594-10.299-9.2406-6.4093-16-8.4498 1.5571-0.0584 12.443 6.2737 5.5753 3.7817 5.5752 3.7817 5.1748 5.662 5.1747 5.662v1.8388h-1zm-583.5-1.1082-3-0.76337h5l6 1.5267h-5zm389 0 3-0.76337h5l-6 1.5267h-5zm-395.75-1.6623 1.25-0.50439 2.5 1.0088h-5zm405 0 1.25-0.50439 2.5 1.0088h-5zm-408.94-1.0208 1.3125-0.52522 0.60417 0.60416 0.60416 0.60417-1.9167-0.079-1.9167-0.0789zm414 0 1.3125-0.52522 0.6042 0.60416 0.6042 0.60417-1.9167-0.079-1.9167-0.0789zm-418-1 1.3125-0.52522 0.60417 0.60416 0.60416 0.60417-1.9167-0.079-1.9167-0.0789zm422 0 1.3125-0.52522 0.6042 0.60416 0.6042 0.60417-1.9167-0.079-1.9167-0.0789zm-565.65-7.3169v-2.5l1.0088 2.5-1.0088 2.5zm710 0v-2.5l1.0088 2.5-1.0088 2.5zm-374.84-0.74886 18.815-0.29575 36.369 0.59262-74-0.00113zm-26.565-0.95687 2.25-0.43337 4.5 0.86673h-9zm84.514-0.0118 2.7638-0.41792 4.4725 0.86313-10-0.0272zm-98.078-1.4179-3.3146-0.95514 0.3146-1.6328 0.31459-1.6328 5.8071-1.553 14.193-1.0294-18.783 2.8882-0.54185 0.54185-0.54186 0.54185 1.9918 1.9918 11.875 1.731-4 0.0318-4 0.0317zm110.56 0.12103 5.2414-0.76498 3.0171-1.1578v-1.9102l-10.5-2.0835 9.6659 0.91538 1.8341 1.1336v2.788l-7.5 2.0829-7-0.23836zm-404.73-0.58763 7e-3 -0.89788 3.7048-5.6189 6.782-6.0198-4 0.91178-4 1.2524 8-3.8046 4.5-1.3556-0.1488 1.6348-10.345 8.1084-4.5066 6.6874zm706.49-2.7141-2-3.0869-10.351-8.0969-0.148-1.6348 4.5 1.3556 8 3.8046-4-1.2524-4-0.91862 7.2652 6.6455 1.7529 2.7812 1.7528 2.7812-0.3854 0.35415-0.3855 0.35416zm-717.5-1.1788v-0.47627l12.202-6.1597 0.36669 0.36668 0.36668 0.36669-12.936 6.3789zm406.75-2.2108 2.25-0.43337 4.5 0.86673h-9zm-77-1.0347 6.25-0.35504 12.5 0.71008h-25zm55 0 6.25-0.35504 12.5 0.71008h-25zm-24.974-0.9931 4.2764-0.38408 7.4471 0.78137-16-0.014zm-3.3294-20.952-8.7534-9.8143-39.247-47-31.081-39-32.066-42-28.94-40-22.002-32-22.042-34-19.977-33-15.666-28-21.245-43.1-10.689-26.765-7.8823-23.135-5.702-24-2.5855-16 0.21402-36 1.6668-12.5 1.6668-12.5 4.9077-23 7.1915-23 7.9609-19.983 13.821-27.238 15.81-23.779 16.926-21 27.844-27.067 23.289-17.493 21.633-13.281 28-13.49 25-8.9947 29-7.0874 23-3.5881h58l24 3.7432 30.144 7.5644 27.856 10.376 30.105 15.44 11.448 7.5948 11.447 7.5948 21 16.94 27.049 27.746 18.023 24 11.476 18.557 11.758 23.443 3.4905 8.5 3.4906 8.5 7.4076 23 2.8513 13 2.8514 13 3.395 25 0.082 38-1.7479 9.5-1.7478 9.5-4.8984 19.437-4.1306 12.281-4.1307 12.281-6.3639 15.296-6.364 15.296-20.754 41.452-9.4982 16.564-9.4983 16.565-19.534 31.828-28.535 43.044-33.472 46.956-31.055 41-32.895 41.678-35.119 42.322-23.358 27-4.0741 3.6286zm21.695-175.57 9.4467-7.2507 20.911-18.095 12.633-9.6223 0.83489-2.196 0.8349-2.1959-0.72591-3.9445-0.72592-3.9445-8.3534-17-9.8179-13-13.184-15-5.4956-11 0.0749-6.5 0.0748-6.5 4.1691-8.065 4.6812-2.2147 8.232-2.2202 5.768-0.00164 15-3.1192 6-3.49 9-11.21 10.5-19.901v-8.0669l-5.6317-5.7115-10.582-8.7948-7.1218-11.133-7.8104-18.072-5.8244-9.1283-15.804-11.315-5.8136-8.777-1.3294-4.028-1.3294-4.028 3.7305-11.362 3.7305-11.362 3.7852-15.627v-5.7385l-4.0996-1.3012-10.975 8.4669-32.426 30.455-40.113 40.744-9.9925 13.539-13.441 24.648-2.2265 1.0832-2.2265 1.0832-17 2.2216-11.12 1.9248-25.88-0.00164-15-3.031-14.395-7.188-12.2-12.705-7.9419-16.948-2.0433-8.2098-2.0433-8.2098-0.37652-26.524 2.095-2.8416 2.095-2.8416 12.81-4.6416 22.942-5.9376 19.686-6.1161 6.3714-6.4239 7-12.398 7.6799-12.018 9.9962-10.937 14.407-9.6362 18.959-6.2866 21.958-3.3418 38.422 0.0328 10.078 2.2049 10.5 2.1852 15.984 6.0262 10.016 5.0576 9 6.0726 19.336 16.626 25.905 28.532 10.76 12.83 9 10.879 3.5 4.3047 3.5 4.3047 22 26.632 5.6395 6.0341 5.6394 6.0341 13.292 8.9815 0.9286 4.5 0.4959 2.4078 0.496 2.4078 18.508 15.791 6.3392 4.6508 4.6608-1.2402 21.901-31.469 12.72-22.048 9.843-20.491 6.9948-18.675 4.8062-18.834 1.1999-6 1.2-6 0.9177-4.1928 0.9176-4.1928v-36.494l-2.207-12.12-2.4299-10-2.4298-10-5.0446-10.5-5.0445-10.5-5.6187-8.45-5.6186-8.45-20.595-21.317-8.7559-6.2433-8.7558-6.2433-15-7.5497-18-6.1534-27.633-5.093h-13.984l-14.383 2.1506-20.639 4.9857-20.424 8.557-13.937 8.6955-11 8.4467-21.183 21.664-7.0742 10-6.272 12.5h-5.0642l-3.407-6.1346-11.11-16.903-15.41-16.838-16.48-13.244-16.255-9.8673-20.442-8.2012-29.215-5.8124h-17.239l-21.85 3.9542-18 5.2381-20 9.548-20 14.005-13.083 12.799-14.745 19.791-4.8639 9.239-4.8639 9.239-4.692 13.795-1.561 7.9457-1.561 7.9457-1.0651 6.6153-1.0651 6.6153v24.125l2.0354 15.645 4.1188 21.688 6.4939 19.312 9.6598 23.587 13.434 24.202 16.759 24.128 12.234 15.082 24.766 26.244 34.562 33.16 31.297 27.596 17.238 15 45.902 38.705 33.739 27.295 2.6308 1.7447 2.6307 1.7447 4.1957 0.01zm20.897-200.2-1.2051-1.452 1.3-4.096h3.7948l2.2092 4.1278-2.3837 2.8722h-2.5102zm-130.75-74.926 0.90245-2.7073-0.61669-2.4571-0.61669-2.4571h-3.8167l-4.1452 5.2697v5.6309l3.5 1.9838 3.8904-2.5556z" fill="#4e6def"/><path d="m834.66 1006.4-13.5-0.3055-48-2.2114-41-2.9688-31-3.0412-24-2.825-15-1.9701-20-3.0325-24-4.0753-33-7.1474-14-3.6226-21.756-6.3504-23.169-8.9547-17.687-9.3256-12.621-10.411-5.2665-10.569v-7.6716l2.8475-6.815 8.6499-9.384 11.757-7.9843 18.477-8.7524h2.6264l-9.231 8.8449-1.1952 3.9894-1.1953 3.9894 2.2063 4.5576 2.2063 4.5576 9.9644 7.3145 15.387 7.475 19 6.184 18 4.9145 24 5.1547 23.432 3.9727 27.568 3.9223 17 2.106 28 2.8853 25 2.1528 29 2.0087 70 2.9415h90l70-2.9386 41-3.0095 22-1.9884 27.562-3.0563 23.438-3.0405 31-5.029 20-4.0432 23.718-5.9244 22.282-7.1849 16-7.8155 9.2395-6.7713 2.2621-4.673 2.2622-4.673-1.1953-3.9894-1.1952-3.9894-4.6156-4.4224-4.6155-4.4224h2.6264l18.477 8.7524 11.951 8.1157 9.1716 10.201 1.1828 3.584 1.1828 3.584-0.4986 4.4231-0.4985 4.4231-5.799 9.3796-5.662 4.5614-5.6621 4.5614-17.688 9.3261-23.169 8.9547-21.756 6.3504-14 3.6226-33 7.1474-24 4.0753-20 3.0325-15 1.9701-24 2.825-31 3.0502-43 3.0168-38 2.025-97 0.7405zm12-62.022-11.5-0.32648-56-2.151-40-2.9754-19-1.9922-25-3.043-13-2.0583-24-4.8095-18.35-5.7614-9.0172-5.2844-1.3133-4.1378 0.56483-2.1778 0.56484-2.1778 3.309-2.2306 3.309-2.2306 14.465-5.3404 1.1068 1.1068-2.624 4.2017 2.1772 3.4931 7.8082 4.4356 21 5.0052 19 3.0259 25.473 2.9731 38.527 3.0743 62 2.9689h106l62-2.9689 38.527-3.0743 25.473-2.9731 19-3.0259 21-5.0052 3.9041-2.2178 3.9042-2.2178 1.0885-1.7465 1.0886-1.7466-1.312-2.1008-1.312-2.1008 0.5454-0.54534 0.5453-0.54534 6.274 2.2449 6.2739 2.2449 8.4802 4.8684 1.2004 4.783-0.6566 2.0689-0.6567 2.0689-8.9484 5.2441-17.437 5.6074-24.982 5.0038-13 2.0583-25 3.043-19 1.9935-41 3.0075-48 1.9792-72 0.79153zm-17.898-41.956-10.398-1.3353-2.0711-2.0711 1.0358-1.0358 20.831-2.8295 45-1.2658 42 2.0289 12.5 2.2826v1.6683l-2.0486 1.2661-23.451 2.7896-73-0.1626z" fill="#313131"/></g><g transform="matrix(.94496 0 0 .79801 -816.49 -101.04)" fill="#333"><path d="m1218.4 851.6-13.912-16.25-16.043-19-13.01-16-13.01-16-28.973-37-27.038-36-28.235-39.471-15.892-23.764-15.892-23.764-9.7865-15.914-9.7864-15.914-19.047-33.172-21.542-43-11.989-29-4.0475-12-4.0474-12-5.0146-19.446-1.743-9.2769-1.7431-9.2769-0.066-39 1.3412-10.5 1.3411-10.5 2.4587-12 2.4586-12 6.8892-23.477 4.0802-10.261 4.0801-10.261 6.2345-12.5 6.2346-12.5 12.371-19.617 10.649-14.383 10.798-13 17.046-17.732 22-18.488 14-9.8816 18.244-11.253 22.176-11.121 16.58-6.8381 22-7.1298 18-4.2517 21.917-3.7626 34.406-2.3804 32.677 2.3361 24 3.9748 17 4.0879 22 7.1258 17 6.9873 27.583 14.121 22.417 14.937 18 14.459 15.843 14.81 16.675 18.711 14.065 18.713 12.328 19.577 6.2157 12.5 6.2156 12.5 8.1314 20.472 6.0988 20.528 3.0454 13 0.982 5 0.9821 5 1.4761 10.5 1.4762 10.5 1.2252 34-1.6936 11.5-1.6937 11.5-2.4148 10.25-2.4149 10.25-4.9364 14.75-4.9365 14.75-11.118 26.354-15.97 32.646-15.327 28-6.5162 11-6.5163 11-17.616 28.379-26.422 39.621-10.532 15-10.533 15-18.871 25.358-18.872 25.358-36.353 46.285-28.853 35-16.913 19.75-16.913 19.75h-0.5987z" fill="#333"/></g><path d="m311.51 693.76-11.705-0.26479-41.617-1.9174-35.548-2.574-13.439-1.3184-13.439-1.3185-20.809-2.4494-13.005-1.7082-17.341-2.6292-20.809-3.5334-28.612-6.1971-12.138-3.1408-18.863-5.506-20.088-7.764-15.335-8.0856-10.943-9.0263-4.5662-9.1632v-6.6515l2.4689-5.9088 7.4997-8.1362 10.194-6.9226 16.02-7.5886h2.2772l-8.0036 7.6688-1.0363 3.4589-1.0363 3.4589 3.8258 7.9031 8.6394 6.3419 13.341 6.481 16.474 5.3617 7.8033 2.1305 7.8033 2.1306 20.809 4.4693 20.316 3.4445 23.902 3.4007 14.739 1.826 24.277 2.5016 21.676 1.8666 12.572 0.87076 12.572 0.87084 60.692 2.5504h78.033l60.692-2.5478 35.548-2.6093 19.074-1.724 23.897-2.6498 10.161-1.3181 10.161-1.3181 26.878-4.3603 17.341-3.5056 20.565-5.1366 9.6593-3.1148 9.6594-3.1147 6.9362-3.3882 6.9362-3.3881 4.0054-2.9355 4.0056-2.9354 1.9613-4.0516 1.9613-4.0515-1.0363-3.4589-1.0364-3.4589-8.0035-7.6688h2.2771l16.02 7.5886 10.362 7.0366 3.976 4.4223 3.976 4.4224 1.0255 3.1073 1.0257 3.1074-0.4323 3.835-0.4323 3.835-2.5139 4.0662-2.514 4.0662-9.8183 7.9098-15.336 8.086-20.088 7.764-18.863 5.506-12.138 3.1408-28.612 6.1971-20.809 3.5334-17.341 2.6292-13.006 1.7082-20.809 2.4494-13.439 1.3223-13.439 1.3222-37.282 2.6157-32.947 1.7557-84.102 0.64195zm10.404-53.775-9.9708-0.28308-48.554-1.865-34.681-2.5798-16.474-1.7274-21.676-2.6384-11.271-1.7846-20.809-4.17-7.9551-2.4976-7.955-2.4977-7.8182-4.5817-0.56938-1.7938-0.56929-1.7938 0.4897-1.8882 0.48978-1.8882 2.8689-1.934 2.869-1.934 12.541-4.6303 0.95963 0.95963-1.1375 1.8215-1.1375 1.8215 0.94384 1.5143 0.94385 1.5144 6.7699 3.8458 18.208 4.3397 16.474 2.6235 11.043 1.2888 11.043 1.2889 33.404 2.6655 53.756 2.5741h91.905l53.756-2.5741 33.404-2.6655 11.043-1.2889 11.043-1.2888 16.474-2.6235 18.208-4.3397 6.77-3.8458 0.9438-1.5144 0.9439-1.5143-1.1376-1.8215-1.1375-1.8215 0.4729-0.47279 0.4728-0.47288 10.879 3.8928 3.6763 2.1104 3.6762 2.1105 0.5205 2.0735 0.5204 2.0735-0.5694 1.7938-0.5693 1.7938-3.8792 2.2734-3.8793 2.2734-15.118 4.8618-21.66 4.3385-11.271 1.7846-21.676 2.6384-8.2368 0.86425-8.2368 0.86417-35.548 2.6076-41.617 1.716-62.426 0.68626zm-15.518-36.377-9.0151-1.1577-0.89789-0.89781-0.8979-0.8979 0.89807-0.89807 18.061-2.4533 39.016-1.0975 36.415 1.759 5.4189 0.98954 5.4189 0.98962v1.4464l-0.8881 0.54892-0.8881 0.54883-20.333 2.4187-63.293-0.1404z" fill="#333" stroke-width=".86703"/><g transform="matrix(1.0908 0 0 1.1447 -1427.2 -235.29)"><path d="m1677.4 579.84 0.9237-1.542 21-26.378 10.559-17.375 3.1868-10.962-0.5339-5.8885-0.534-5.8885-5.1798-7.8272-7.4978-3.7251-10-2.597-19-7.7635-11.581-8.6699-3.0659-4.169-3.0658-4.169-1.8937-4.9838-1.8938-4.9838v-9.0929l2.2704-9.3856 12.786-32.34 4.199-16.605-0.5675-7.504-0.5675-7.504-9.0344-18.047-5.8052-7.6888-5.8051-7.6888-16.475-17.965v-2.089l14.923-17.786 16.577-14.026 11.894-7.5694 18.106-8.5628 17.014-4.9178 19.815-2.4942 22.171 1.2068 19 4.8512 16.284 6.2925 8.0575 4.8427 8.0574 4.8427 13.029 10.368 12.311 13.385 9.4836 14 3.7771 7.5 3.777 7.5 2.4269 6.4469 2.4268 6.4469 3.8094 16.106 1.0864 11.756 1.0865 11.756-1.0087 10.804-1.0088 10.804-3.2268 15.88-3.9767 12-3.9768 12-5.4825 11.164-5.4826 11.164-17.672 26.673-9.3531 10 3.1057-6.3565 3.1056-6.3565 4.14-15.287 0.1119-18 0.1118-18-3.7096-16-5.9038-15.417-10.078-15.439-9.0751-10.512-12.565-10.195-16.118-22.809-15.974-19.859-11.237-10.27h-5.7927l-3.5462 5.4077-0.3429 19.046-0.343 19.046-0.9232 1.1219-0.9231 1.1219-12.468 4.5343-15.169 15.222-4.0496 7-4.0497 7-8.4842 20-2.7782 4-2.7783 4-7.3616 7-2.8294 5.4007v3.8306l7.231 14.454 10.651 10.482 13.13 6.4641 15.487 2.9352 7.6244 2.0508 7.7564 7.0075 1.6829 5.0665 1.6828 5.0665-0.9338 14.551-3.6591 7.7049-3.659 7.7049-6.3182 8.2809-24.176 24.639-7.8474 6.3039zm19.946-143.15-2.5896-2.25-1.131-7.1106 5.3763-6.3894h5.7107l2.7831 2.3939 2.783 2.3939v8.4245l-2.783 2.3939-2.7831 2.3939h-4.7769z" fill="#f5b234"/><path d="m1612.6 699.7-11.414-12.25-69.08-76-55.404-60-2.1904-3.9196 14.398 13.353 14.397 13.353 34 28.365 42 32.962 24 18.028 22.687 16.528 4.3132-1.1177 54.007-40.552 33.993-26.852 29-23.995 15-13.196 3.8275-2.9568-1.1093 2-1.1092 2-20.39 22-79.219 87.021-16.242 18.129-16.242 18.129-1.5897 0.61003-1.5897 0.61002h-4.6287zm1.0599-92.5-12.394-13.75-15.106-17-20.04-24-16.046-21.663-9.1391-16.337-2.6732-8-2.6733-8 0.4305-8.5 0.4304-8.5 4.1888-8 7.6694-7.4024 8-3.4102 38-1.4665 13.5-3.1922 12.397-6.258 10.103-10.453 6.8338-11.466 3.3115-8.8162 3.3114-8.8162 1.2242-10.72-2.0916-5.3954-4.8216-3.1592-28.768-4.8199-12.428-3.8935-4.2871-2.5124-4.287-2.5124-3.6394-4.0215-1.8919-7.5706-1.8918-7.5706-3.359-6.5446-6.6282-6.5309-6.6281-6.5309-16.959-8.3962-16-4.33-32-0.1518-13.945 3.5144-7.2232 3.4742-7.2233 3.4742-17.455 16.477-14.242 19.089-9.6006 16.645-5.6922 12.687-3.2731 9.79-3.2732 9.79-0.048 33 4.4894 15.576 4.7566 11.424 5.2034 11.5h-0.7398l-4.0621-6.25-4.062-6.25-12.022-25-3.0718-9.2296-3.0717-9.2296-2.043-9.2704-2.0431-9.2704-1.0838-35 1.5927-9.1357 1.5926-9.1357 5.2196-16.729 8.8898-17.774 10.43-15.196 18-18.067 15.533-10.606 18.467-8.7339 17.515-5.0632 16.432-2.0604h19.29l17.28 3.0133 18.482 6.0157 16.472 8.471 18.498 13 28.107 28 8.8558 10 8.8557 10 9.9528 14 7.8953 16.265 0.5592 7.3949 0.5593 7.3949-4.199 16.605-12.786 32.34-2.2704 9.3856v9.0929l3.7874 9.9676 6.1318 8.3379 11.581 8.6699 19 7.7635 10 2.597 7.4978 3.7251 5.1798 7.8272 0.534 5.8885 0.5339 5.8885-1.5801 5.4281-1.58 5.4281-10.166 17-26.786 33.64-16.34 14.143-13.561 10.858-13.561 10.858h-3.4246zm-134.35-134.25-7-0.76819-16-5.3489-13-7.6778-11.152-11.707-3.6416-9.556 1.1664-16.444 3.1776-9 3.1777-9 5.9908-12 11.221-17 16.819-17.474 12.06-6.0263h4.7799l5.6624 2.9282 2.5414 3.0203 2.5415 3.0203 2.1738 5.7656 2.1739 5.7656 3.3928 13 3.3927 13 2.6415 15.5 2.6414 15.5 0.2392 25-1.8025 4.6711-1.8026 4.6711-8.7136 8.0319-3.8406 0.98244-3.8407 0.98243-8 0.93082zm74.729-79.671-1.271-0.5114-3.135-6.0623 1.2514-6.6704 5.1954-4.0867h4.6187l5.3843 4.6313v8.4494l-4.6214 4.9192-6.1514-0.1578z" fill="#2b88bb"/></g></svg>
