<?xml version="1.0" encoding="UTF-8" standalone="no"?>
<!-- Created with Inkscape (http://www.inkscape.org/) -->

<svg
   version="1.1"
   id="svg1"
   width="700"
   height="700"
   viewBox="0 0 700 700"
   sodipodi:docname="logo_tratada_fundo_claro.svg"
   xml:space="preserve"
   inkscape:version="1.4 (86a8ad7, 2024-10-11)"
   xmlns:inkscape="http://www.inkscape.org/namespaces/inkscape"
   xmlns:sodipodi="http://sodipodi.sourceforge.net/DTD/sodipodi-0.dtd"
   xmlns:xlink="http://www.w3.org/1999/xlink"
   xmlns="http://www.w3.org/2000/svg"
   xmlns:svg="http://www.w3.org/2000/svg"><defs
     id="defs1" /><sodipodi:namedview
     id="namedview1"
     pagecolor="#ffffff"
     bordercolor="#000000"
     borderopacity="0.25"
     inkscape:showpageshadow="2"
     inkscape:pageopacity="0.0"
     inkscape:pagecheckerboard="0"
     inkscape:deskcolor="#d1d1d1"
     inkscape:zoom="0.41051477"
     inkscape:cx="494.50109"
     inkscape:cy="25.577642"
     inkscape:window-width="1600"
     inkscape:window-height="829"
     inkscape:window-x="-8"
     inkscape:window-y="-8"
     inkscape:window-maximized="1"
     inkscape:current-layer="g1"
     showguides="false"
     showgrid="true"
     inkscape:lockguides="true" /><g
     inkscape:groupmode="layer"
     inkscape:label="Image"
     id="g1"><g
       id="g425"
       transform="translate(2195.5755,-465.05438)"><path
         style="fill:#eeba03"
         d="m 875.52958,702.24476 -2.63075,-1.74473 -16.86925,-13.64729 -16.86926,-13.64729 -8.12717,-6.85271 -8.12717,-6.85271 -14.82389,-12.5 -14.82388,-12.5 -8.61904,-7.5 -8.61905,-7.5 -15.64867,-13.79803 -15.64867,-13.79802 -17.28123,-16.57989 -17.28123,-16.57989 -12.38312,-13.12209 -12.38313,-13.12208 -6.11687,-7.54122 -6.11688,-7.54122 -8.37927,-12.06415 -8.37927,-12.06415 -6.71675,-12.10106 -6.71675,-12.10107 -4.82991,-11.79357 -4.82991,-11.79356 -3.24695,-9.65624 -3.24694,-9.65623 -2.05941,-10.84377 -2.0594,-10.84376 -1.01772,-7.82236 -1.01772,-7.82236 v -12.06234 -12.06235 l 1.06509,-6.61529 1.06508,-6.6153 1.56105,-7.94568 1.56104,-7.94569 2.34602,-6.89759 2.34602,-6.89759 4.86387,-9.23901 4.86386,-9.23902 7.37273,-9.8955 7.37273,-9.8955 6.54126,-6.39973 6.54125,-6.39973 10,-7.00236 10,-7.00237 10,-4.77399 10,-4.774 9,-2.61903 9,-2.61904 10.92489,-1.97709 10.92489,-1.97708 h 8.61938 8.61937 l 14.60728,2.90618 14.60729,2.90617 10.22078,4.1006 10.22078,4.10059 8.12767,4.93363 8.12767,4.93363 8.24004,6.62203 8.24004,6.62203 7.70503,8.41887 7.70504,8.41886 5.55492,8.45141 5.55493,8.45142 1.70349,3.06729 1.70349,3.06729 h 2.53211 2.53212 l 3.13601,-6.25 3.13602,-6.25 3.53711,-5 3.53712,-5 10.59127,-10.83224 10.59126,-10.83224 5.5,-4.22336 5.5,-4.22337 6.9683,-4.34774 6.96829,-4.34774 10.2121,-4.27849 10.21209,-4.27849 10.31961,-2.49284 10.31961,-2.49284 7.19155,-1.07533 7.19156,-1.07532 h 6.99187 6.9919 l 13.8165,2.5465 13.8166,2.54651 9,3.07669 9,3.07669 7.5,3.77485 7.5,3.77485 8.6806,6.18978 8.6806,6.18977 9.8608,10.16218 9.8609,10.16218 4.5636,6.5 4.5637,6.5 3.5621,6.56756 3.5621,6.56755 3.0442,7.93245 3.0442,7.93244 1.6172,6 1.6172,6 1.1051,7 1.105,7 0.023,19 0.023,19 -1.1368,8 -1.1368,8 -1.9729,7.5 -1.9728,7.5 -2.1637,7.28269 -2.1638,7.28269 -4.9075,11.93865 -4.9074,11.93864 -5.0422,9.63835 -5.0422,9.63835 -7.8755,12.32188 -7.8755,12.32189 -5.5095,7.31843 -5.5094,7.31843 -2.5504,2.75 -2.5504,2.75 -1.7977,-0.0186 -1.7978,-0.0186 -9.5,-7.98795 -9.5,-7.98795 -2.25,-2.54923 -2.25,-2.54923 v -2.03785 -2.03786 l 2,-0.52301 2,-0.52301 v -0.8136 -0.81359 l -7.2837,-3.50333 -7.2837,-3.50333 -4.6843,-4.12329 -4.6843,-4.12328 -7.6378,-9.19316 -7.6377,-9.19316 -8.1443,-9.85931 -8.14418,-9.8593 -4,-4.7496 -4,-4.7496 -6.5,-7.84277 -6.5,-7.84277 -13.49837,-14.98538 -13.49837,-14.98537 -9.00163,-7.90053 -9.00163,-7.90052 -5.90581,-4.0555 -5.90581,-4.05549 -10.09419,-4.7228 -10.09419,-4.7228 -8.5,-2.07601 -8.5,-2.07601 -3.5,-0.72383 -3.5,-0.72382 -24,-0.036 -24,-0.036 -7,1.17093 -7,1.17093 -7,2.01285 -7,2.01285 -8.13935,4.01153 -8.13935,4.01153 -6.88546,6.81751 -6.88546,6.8175 -5.89921,9.93889 -5.89922,9.93888 -2.80421,4.55362 -2.8042,4.55363 -4.00692,2.25201 -4.00692,2.25202 -8.76485,2.45169 -8.76485,2.45168 -6,1.59778 -6,1.59778 -9.90957,3.05156 -9.90957,3.05157 -2.96939,2.65315 -2.96939,2.65315 0.0241,13.57922 0.0241,13.57922 1.02815,3.36096 1.02814,3.36096 1.17706,5.5 1.17706,5.5 3.93971,8.27372 3.9397,8.27373 6.44435,6.83134 6.44435,6.83135 7.26559,3.6286 7.26559,3.6286 7.5,1.51551 7.5,1.51551 12.9398,8.2e-4 12.93981,8.2e-4 5.56019,-0.96238 5.5602,-0.96238 8.5,-1.11078 8.5,-1.11078 2.22651,-1.08324 2.2265,-1.08325 6.72064,-12.32398 6.72065,-12.32397 4.93378,-6.76962 4.93378,-6.76962 31.61907,-31.50107 31.61907,-31.50108 9.91435,-8.24892 9.91434,-8.24893 h 1.36704 1.36704 l 0.50964,1.3281 0.50964,1.32809 -2.10022,9.69371 -2.10022,9.6937 -3.50448,11.06722 -3.50447,11.06721 1.52417,4.4732 1.52417,4.4732 3.47903,4.73938 3.47902,4.73938 7.55239,5.34826 7.55239,5.34826 2.93531,4.60015 2.93531,4.60014 3.90519,9.03606 3.90519,9.03606 3.56087,5.56654 3.56088,5.56654 5.2655,4.3974 5.26549,4.3974 2.34122,2.20454 2.34121,2.20455 v 4.06765 4.06765 l -4.13485,8.22781 -4.13485,8.2278 -3.83749,5.65439 -3.83748,5.65439 -3.74598,3.08776 -3.74598,3.08775 -4.53169,1.42016 -4.53168,1.42016 -10.96108,1.15585 -10.96108,1.15584 -2.71981,1.60664 -2.71982,1.60663 -1.5691,4.10865 -1.56911,4.10864 v 6.72747 6.72747 l 2.00033,4.2391 2.00033,4.2391 4.24967,5.16561 4.24967,5.16561 6.29058,7.55544 6.29057,7.55543 4.26551,6.91844 4.2655,6.91845 2.35259,6.91026 2.35259,6.91025 -0.62677,2.49726 -0.62678,2.49726 -11.28189,9.13692 -11.2819,9.13693 -15.94862,13.06607 -15.94861,13.06607 -1.05139,-0.005 -1.05138,-0.005 z m 43.35331,-203.80064 0.55591,-0.55591 -1.04982,-3.42063 -1.04983,-3.42064 -2.26538,-2.12823 -2.26539,-2.12822 -1.13572,0.70191 -1.13571,0.70191 -0.91026,2.39417 -0.91026,2.39418 0.54981,1.43279 0.54981,1.43278 3.67213,1.52437 3.67214,1.52437 0.58333,0.0515 0.58334,0.0515 z M 773.66032,421.63489 v -2.36514 l 2.07258,-2.63486 2.07258,-2.63486 h 1.31079 1.31079 l 0.60297,2.25 0.60298,2.25 0.0137,0.75 0.0136,0.75 -2,2 -2,2 h -2 -2 z"
         id="path427" /><path
         style="fill:#4e6def"
         d="m 873.94683,1007.26 5.78652,-0.362 5.21348,0.3661 5.21349,0.366 h -11 -11 z m -55.48332,-1.0064 10.3032,-0.3247 9.6968,0.3263 9.69681,0.3262 h -20 -20 z m 102,0 10.3032,-0.3247 9.6968,0.3263 9.69681,0.3262 h -20 -20 z m -127.05319,-0.9858 4.25,-0.3828 4.25,0.3828 4.25,0.3828 h -8.5 -8.5 z m 163,0 4.25,-0.3828 4.25,0.3828 4.25,0.3828 h -8.5 -8.5 z m -182.96648,-1.0062 5.28352,-0.3684 4.71648,0.3732 4.71648,0.3731 h -10 -10 z m 202,0 5.28352,-0.3684 4.71648,0.3732 4.71648,0.3731 h -10 -10 z m -218.03352,-0.985 3.25,-0.4033 3.25,0.4033 3.25,0.4034 h -6.5 -6.5 z m 237,0 3.25,-0.4033 3.24998,0.4033 3.25,0.4034 h -6.49998 -6.5 z m -250,-1 3.25,-0.4033 3.25,0.4033 3.25,0.4034 h -6.5 -6.5 z m 262.99998,0 3.25,-0.4033 3.25,0.4033 3.25,0.4034 h -6.5 -6.5 z m -275.99998,-1 3.25,-0.4033 3.25,0.4033 3.25,0.4034 h -6.5 -6.5 z m 288.99998,0 3.25,-0.4033 3.25,0.4033 3.25,0.4034 h -6.5 -6.5 z m -298.98832,-0.9838 2.26166,-0.43493 1.73834,0.45503 1.73834,0.4551 -4,-0.02 -4,-0.02 z m 312.00002,0 2.2616,-0.43493 1.7384,0.45503 1.7383,0.4551 -4,-0.02 -4,-0.02 z m -323.51168,-1.00903 2.75,-0.41659 2.75,0.41659 2.75,0.41659 h -5.5 -5.5 z m 332.99998,0 2.75,-0.41659 2.75,0.41659 2.75,0.41659 h -5.5 -5.5 z m -342.49998,-0.98947 2.25,-0.43337 2.25,0.43337 2.25,0.43336 h -4.5 -4.5 z m 352.99998,0 2.25,-0.43337 2.25,0.43337 2.25,0.43336 h -4.5 -4.5 z m -360.98832,-1.00153 2.26166,-0.4349 1.73834,0.45508 1.73834,0.45508 -4,-0.0202 -4,-0.0202 z m 370.00002,0 2.2616,-0.4349 1.7384,0.45508 1.7383,0.45508 -4,-0.0202 -4,-0.0202 z m -379.49793,-1.01032 2.76375,-0.41792 2.23625,0.43157 2.23625,0.43156 -5,-0.0136 -5,-0.0136 z m 388.00003,0 2.7637,-0.41792 2.2363,0.43157 2.2362,0.43156 -5,-0.0136 -5,-0.0136 z m -394.99475,-0.97541 1.76903,-0.46099 1.23097,0.49804 1.23097,0.49804 -3,-0.0371 -3,-0.0371 z m 404.00005,0 1.769,-0.46099 1.231,0.49804 1.2309,0.49804 -3,-0.0371 -3,-0.0371 z m -412.51908,-1.01274 2.25,-0.43337 2.25,0.43337 2.25,0.43336 h -4.5 -4.5 z m 418.99998,0 2.25,-0.43337 2.25,0.43337 2.25,0.43336 h -4.5 -4.5 z m -430.74998,-1.29427 -3.5,-0.73672 2.5,-0.074 2.5,-0.074 4,0.82737 4,0.82737 -3,-0.0166 -3,-0.0166 z m 441.49998,-0.0574 4,-0.82737 2.5,0.0574 2.5,0.0574 -4,0.82737 -4,0.82737 -2.5,-0.0574 -2.5,-0.0574 z m -450.24998,-1.63196 1.75,-0.45732 1.75,0.45732 1.75,0.45733 h -3.5 -3.5 z m 460.99998,0 1.75,-0.45732 1.75,0.45732 1.75,0.45733 h -3.5 -3.5 z M 636.66032,990 l -3.5,-0.73672 3,-0.0133 3,-0.0133 3,0.76337 3,0.76337 -2.5,-0.0133 -2.5,-0.0133 z m 479.49998,0 3,-0.76337 3,-0.003 3,-0.003 -4,0.82737 -4,0.82737 -2,-0.0607 -2,-0.0607 z m -487.23095,-1.69299 1.76903,-0.46099 1.23097,0.49804 1.23097,0.49804 -3,-0.0371 -3,-0.0371 z m 498.00005,0 1.769,-0.46099 1.231,0.49804 1.2309,0.49804 -3,-0.0371 -3,-0.0371 z m -503.51908,-0.96929 1.25,-0.50439 1.25,0.50439 1.25,0.50438 h -2.5 -2.5 z m 508.99998,0 1.25,-0.50439 1.25,0.50439 1.25,0.50438 h -2.5 -2.5 z m -514.48095,-1.03071 1.76903,-0.46099 1.23097,0.49804 1.23097,0.49804 -3,-0.0371 -3,-0.0371 z m 520.00005,0 1.769,-0.46099 1.231,0.49804 1.2309,0.49804 -3,-0.0371 -3,-0.0371 z m -539.54333,-3.53076 -13.77426,-3.06108 0.4291,-0.42909 0.42909,-0.4291 14.34516,3.10784 14.34516,3.10784 1,0.38472 1,0.38472 -2,-0.002 -2,-0.002 z m 544.77423,2.68113 1,-0.38472 14.3452,-3.10784 14.3451,-3.10784 0.4246,0.42452 0.4245,0.42452 -14.4853,3.14699 -14.4853,3.14699 -1.2844,-0.079 -1.2844,-0.0789 z m -561.68748,-7.14049 1.3125,-0.52522 0.60417,0.60416 0.60416,0.60417 -1.91666,-0.079 -1.91667,-0.0789 z m 597.18748,-0.86861 4.5,-1.41792 1.5,0.0517 1.5,0.0517 -4.5,1.41792 -4.5,1.41793 -1.5,-0.0517 -1.5,-0.0517 z M 574.66032,977 l -2.5,-0.80064 2,-0.0294 2,-0.0294 2,0.85943 2,0.85943 -1.5,-0.0294 -1.5,-0.0294 z m -12.5,-3.48363 -7,-2.30898 1,-0.098 1,-0.098 7.5,2.39521 7.5,2.39522 -1.5,0.0118 -1.5,0.0118 z m 631.49998,-0.10986 7.5,-2.39521 1,0.0935 1,0.0935 -7.5,2.39521 -7.5,2.39522 -1,-0.0935 -1,-0.0935 z M 550.66032,970 l -1.5,-0.96938 1,0.055 1,0.055 2,0.85943 2,0.85943 -1.5,0.055 -1.5,0.055 z m 653.33338,0.33333 0.6666,-0.66666 0.6667,0.66666 0.6667,0.66667 h -1.3334 -1.3333 z m 3,-1 0.6666,-0.66666 0.6667,0.66666 0.6667,0.66667 h -1.3334 -1.3333 z m -669.64592,-4.02303 -8.81255,-3.51855 0.36328,-0.36328 0.36328,-0.36327 9.94927,3.91529 9.94926,3.91529 -1.5,-0.0335 -1.5,-0.0335 z m 683.81252,-1.14701 12,-4.74537 8.3592,-4.45896 8.3591,-4.45896 5.6095,-4.51849 5.6095,-4.51848 3.0314,-4.9031 3.0313,-4.90309 v -6.23293 -6.23293 l 0.7347,1.15451 0.7347,1.15451 -0.01,4 -0.01,4 -1.8786,4.137 -1.8785,4.13701 -3.7171,4.1144 -3.7171,4.1144 -6.6324,4.38182 -6.6324,4.38182 -6.3637,3.18856 -6.3637,3.18857 -10.0798,3.92821 -10.0797,3.92821 -1.0566,-0.0457 -1.0565,-0.0457 z m -369.17919,1.08724 27.8208,-0.28242 27.1792,0.2827 27.17921,0.2827 -55,-2.8e-4 -55,-2.8e-4 z m -48.07079,-0.98952 5.75,-0.36082 5.75,0.36082 5.75,0.36082 h -11.5 -11.5 z m 139,0 5.75,-0.36082 5.75,0.36082 5.75,0.36082 h -11.5 -11.5 z m -165,-1 5.75,-0.36082 5.75,0.36082 5.75,0.36082 h -11.5 -11.5 z m 191,0 5.75,-0.36082 5.75,0.36082 5.75,0.36082 h -11.5 -11.5 z m -207.5,-0.98441 3.25,-0.40332 3.25,0.40332 3.25,0.40332 h -6.5 -6.5 z m 229,0 3.25,-0.40332 3.25,0.40332 3.24998,0.40332 h -6.49998 -6.5 z m -244.5,-1.00507 3.75,-0.39226 3.75,0.39226 3.75,0.39226 h -7.5 -7.5 z m 258.99998,0 3.75,-0.39226 3.75,0.39226 3.75,0.39226 h -7.5 -7.5 z m -487.15731,-4.81856 -8.40733,-4.51361 -4.76161,-3.49535 -4.76162,-3.49535 -3.21261,-3.65895 -3.2126,-3.65896 -1.84649,-4.06538 -1.84649,-4.06537 0.1028,-4 0.10279,-4 0.76229,5.2194 0.76229,5.2194 2.6616,4.54168 2.6616,4.54168 5.90403,4.73892 5.90403,4.73892 9.79733,5.23413 9.79732,5.23412 -1,-8.3e-4 -1,-8.4e-4 z m 213.65733,3.82363 3.25,-0.40332 3.25,0.40332 3.25,0.40332 h -6.5 -6.5 z m 288.99998,0 3.25,-0.40332 3.25,0.40332 3.25,0.40332 h -6.5 -6.5 z m -299.99998,-0.98233 2.25,-0.43337 2.25,0.43337 2.25,0.43336 h -4.5 -4.5 z m 312.99998,0 2.25,-0.43337 2.25,0.43337 2.25,0.43336 h -4.5 -4.5 z m -324.98207,-1.019 3.26791,-0.40466 2.73209,0.41486 2.73209,0.41486 -6,-0.0102 -6,-0.0102 z m 335.99997,0 3.2679,-0.40466 2.7321,0.41486 2.7321,0.41486 -6,-0.0102 -6,-0.0102 z m -346.01788,-0.981 2.25,-0.43337 2.25,0.43337 2.25,0.43336 h -4.5 -4.5 z m 356.99998,0 2.25,-0.43337 2.25,0.43337 2.25,0.43336 h -4.5 -4.5 z m -365.99998,-1 2.25,-0.43337 2.25,0.43337 2.25,0.43336 h -4.5 -4.5 z m 374.99998,0 2.25,-0.43337 2.25,0.43337 2.25,0.43336 h -4.5 -4.5 z m -384.99998,-1 2.25,-0.43337 2.25,0.43337 2.25,0.43336 h -4.5 -4.5 z m 394.99998,0 2.25,-0.43337 2.25,0.43337 2.25,0.43336 h -4.5 -4.5 z m -402.49998,-0.9836 1.75,-0.45732 1.75,0.45732 1.75,0.45733 h -3.5 -3.5 z m 410.99998,0 1.75,-0.45732 1.75,0.45732 1.75,0.45733 h -3.5 -3.5 z m -419.49998,-1.0164 2.25,-0.43337 2.25,0.43337 2.25,0.43336 h -4.5 -4.5 z m 426.99998,0 2.25,-0.43337 2.25,0.43337 2.25,0.43336 h -4.5 -4.5 z m -434.49998,-0.9836 1.75,-0.45732 1.75,0.45732 1.75,0.45733 h -3.5 -3.5 z m 442.99998,0 1.75,-0.45732 1.75,0.45732 1.75,0.45733 h -3.5 -3.5 z m -448.98095,-1.00366 1.76903,-0.46099 1.23097,0.49804 1.23097,0.49804 -3,-0.0371 -3,-0.0371 z m 458.23095,-0.36438 4,-0.82737 3,0.0675 3,0.0675 -4.5,0.80071 -4.5,0.80071 -2.5,-0.0409 -2.5,-0.0409 z m -465.73832,-0.64989 2.26166,-0.4349 1.73834,0.45508 1.73834,0.45508 -4,-0.0202 -4,-0.0202 z m -6.01166,-0.95502 1.25,-0.50439 1.25,0.50439 1.25,0.50438 h -2.5 -2.5 z m 482.99998,0 1.25,-0.50439 1.25,0.50439 1.25,0.50438 h -2.5 -2.5 z m -489.49998,-1.02705 1.75,-0.45732 1.75,0.45732 1.75,0.45733 h -3.5 -3.5 z m 494.99998,0 1.75,-0.45732 1.75,0.45732 1.75,0.45733 h -3.5 -3.5 z m -509.74998,-2.12762 -8,-1.56645 1.5,-0.2826 1.5,-0.2826 9,1.85716 9,1.85717 -2.5,-0.008 -2.5,-0.008 z m 523.99998,-0.27449 9,-1.85716 1.5,0.26981 1.5,0.2698 -9.1433,1.70449 -9.1433,1.7045 -1.3567,-0.11714 -1.3567,-0.11713 z m -308.30056,-1.65239 8.69942,-0.33256 9.30058,0.33065 9.30058,0.33065 -18,0.002 -18,0.002 z m 78,0 8.69942,-0.33256 9.30058,0.33065 9.30058,0.33065 -18,0.002 -18,0.002 z m -305.44942,-0.91845 1.25,-0.50439 1.25,0.50439 1.25,0.50438 h -2.5 -2.5 z m 198.03919,-0.0791 6.28919,-0.35605 5.71081,0.35965 5.71081,0.35965 -12,-0.004 -12,-0.004 z m 144,0 6.28919,-0.35605 5.71081,0.35965 5.71081,0.35965 -12,-0.004 -12,-0.004 z m 206.96079,0.0791 1.25,-0.50439 1.25,0.50439 1.25,0.50438 h -2.5 -2.5 z m -560.74998,-2.10788 -6.5,-1.53632 1,-0.33074 1,-0.33074 7.5,1.87405 7.5,1.87404 -2,-0.007 -2,-0.007 z m 188.28017,1.03389 4.78018,-0.37578 4.21982,0.38132 4.21983,0.38131 -9,-0.006 -9,-0.006 z m 190,0 4.78018,-0.37578 4.21982,0.38132 4.21983,0.38131 -9,-0.006 -9,-0.006 z m 193.71981,-1.35764 7.5,-1.87405 1,0.31819 1,0.31819 -7.3726,1.66579 -7.3727,1.66579 -1.1273,-0.10994 -1.1274,-0.10993 z m -398.23207,0.36918 3.26791,-0.40466 2.73209,0.41486 2.73209,0.41486 -6,-0.0102 -6,-0.0102 z m 222,0 3.26791,-0.40466 2.73209,0.41486 2.73209,0.41486 -6,-0.0102 -6,-0.0102 z m -237.51791,-1.00374 3.75,-0.39226 3.75,0.39226 3.75,0.39226 h -7.5 -7.5 z m 250.99998,0 3.75,-0.39226 3.75,0.39226 3.75,0.39226 h -7.5 -7.49998 z m -261.98623,-0.98911 2.76375,-0.41792 2.23625,0.43157 2.23625,0.43156 -5,-0.0136 -5,-0.0136 z m 276.00003,0 2.7637,-0.41792 2.2363,0.43157 2.2362,0.43156 -5,-0.0136 -5,-0.0136 z m -432.45128,-0.96553 1.3125,-0.52522 0.60417,0.60416 0.60416,0.60417 -1.91666,-0.079 -1.91667,-0.0789 z m 146.45125,-0.0345 2.76375,-0.41792 2.23625,0.43157 2.23625,0.43156 -5,-0.0136 -5,-0.0136 z m 296.00003,0 2.7637,-0.41792 2.2363,0.43157 2.2362,0.43156 -5,-0.0136 -5,-0.0136 z m 149.5487,0.0345 1.3125,-0.52522 0.6042,0.60416 0.6042,0.60417 -1.9167,-0.079 -1.9167,-0.0789 z m -595.99998,-1 1.3125,-0.52522 0.60417,0.60416 0.60416,0.60417 -1.91666,-0.079 -1.91667,-0.0789 z m 140.45125,-0.0345 2.76375,-0.41792 2.23625,0.43157 2.23625,0.43156 -5,-0.0136 -5,-0.0136 z m 316.00003,0 2.7637,-0.41792 2.2363,0.43157 2.2362,0.43156 -5,-0.0136 -5,-0.0136 z m 143.5487,0.0345 1.3125,-0.52522 0.6042,0.60416 0.6042,0.60417 -1.9167,-0.079 -1.9167,-0.0789 z m -603.47915,-0.98356 0.66667,-0.66666 0.66667,0.66666 0.66666,0.66667 h -1.33333 -1.33333 z m 135.91667,-0.0227 1.75,-0.45732 1.75,0.45732 1.75,0.45733 h -3.5 -3.5 z m 332.99998,0 1.75,-0.45732 1.75,0.45732 1.75,0.45733 h -3.5 -3.5 z m 138.0834,0.0227 0.6666,-0.66666 0.6667,0.66666 0.6667,0.66667 h -1.3334 -1.3333 z M 567.66032,934.5 l -3.5,-1.34785 h 1.5 1.5 l 3.5,1.34785 3.5,1.34784 h -1.5 -1.5 z m 134.75,0.79427 2.25,-0.43337 2.25,0.43337 2.25,0.43336 h -4.5 -4.5 z m 348.99998,0 2.25,-0.43337 2.25,0.43337 2.25,0.43336 h -4.5 -4.5 z m 136.25,-0.79427 3.5,-1.34785 h 1.5 1.5 l -3.5,1.34785 -3.5,1.34784 h -1.5 -1.5 z m -492.74998,-0.18933 1.75,-0.45732 1.75,0.45732 1.75,0.45733 h -3.5 -3.5 z m 364.99998,0 1.75,-0.45732 1.75,0.45732 1.75,0.45733 h -3.5 -3.5 z m -370.98095,-1.00366 1.76903,-0.46099 1.23097,0.49804 1.23097,0.49804 -3,-0.0371 -3,-0.0371 z m 378.00005,0 1.769,-0.46099 1.231,0.49804 1.2309,0.49804 -3,-0.0371 -3,-0.0371 z m -504.93575,-0.97368 0.66667,-0.66666 0.66667,0.66666 0.66666,0.66667 h -1.33333 -1.33333 z m 119.91667,-0.0227 1.75,-0.45732 1.75,0.45732 1.75,0.45733 h -3.5 -3.5 z m 390.99998,0 1.75,-0.45732 1.75,0.45732 1.75,0.45733 h -3.5 -3.5 z m 122.0834,0.0227 0.6666,-0.66666 0.6667,0.66666 0.6667,0.66667 h -1.3334 -1.3333 z m -641.15387,-2.48162 -5.32048,-2.04407 0.38009,-0.38009 0.38009,-0.38009 5.44039,2.06442 5.4404,2.06443 0.41667,0.41185 0.41666,0.41184 -0.91666,-0.0521 -0.91667,-0.0521 z M 673.16032,931 l -3,-0.76337 2.5,-0.0186 2.5,-0.0186 2.5,0.80064 2.5,0.80064 -2,-0.0186 -2,-0.0186 z m 407.49998,0 2.5,-0.80064 2.5,0.0186 2.5,0.0186 -3,0.76337 -3,0.76337 -2,0.0186 -2,0.0186 z m 117.0834,0.58816 0.4166,-0.41185 5.4404,-2.06443 5.4404,-2.06442 0.3786,0.3786 0.3786,0.37861 -5.6065,2.09766 -5.6065,2.09767 h -0.6292 -0.6291 z m -531.33338,-2.25044 1.25,-0.50439 1.25,0.50439 1.25,0.50438 h -2.5 -2.5 z m 422.99998,0 1.25,-0.50439 1.25,0.50439 1.25,0.50438 h -2.5 -2.5 z m -426.93748,-1.02083 1.3125,-0.52522 0.60417,0.60416 0.60416,0.60417 -1.91666,-0.079 -1.91667,-0.0789 z m 431.99998,0 1.3125,-0.52522 0.6042,0.60416 0.6042,0.60417 -1.9167,-0.079 -1.9167,-0.0789 z m -445.96957,-3.23984 -8.65708,-2.77811 -4.57452,-2.68084 -4.57453,-2.68085 -1.01839,-1.90288 -1.01839,-1.90289 v -2.16453 -2.16453 l 3.04759,-2.84688 3.04759,-2.84688 7.92015,-3.05433 L 650.5958,897 h 2.70657 2.70658 l -2.17432,2.31445 -2.17431,2.31445 v 1.56311 1.5631 l 1.47447,1.2237 1.47447,1.22371 5.77553,2.46372 5.77553,2.46373 -3,-0.63834 -3,-0.63833 -3.90912,-2.17665 -3.90912,-2.17665 -1.08358,-1.74654 -1.08359,-1.74655 1.31199,-2.10083 1.312,-2.10084 -0.55339,-0.55338 -0.55338,-0.55338 -7.23239,2.67019 -7.23239,2.6702 -3.30898,2.23056 -3.30897,2.23057 -0.56484,2.17783 -0.56483,2.17783 0.65665,2.0689 0.65664,2.0689 4.62375,2.7097 4.62376,2.7097 10.5599,3.24786 10.55989,3.24786 -2,-0.0267 -2,-0.0267 z m 199.9792,2.17337 31.3221,-0.27912 30.6779,0.27934 30.67789,0.27935 -62,-2.3e-4 -62,-2.2e-4 z M 1099.6603,927 l 2.5,-0.80064 1.5,-0.0294 1.5,-0.0294 -2,0.85943 -2,0.85943 -2,-0.0294 -2,-0.0294 z M 546.66032,926.5 V 926 h 0.5 0.5 v 0.5 0.5 h -0.5 -0.5 z m 253.28017,-0.23627 4.78018,-0.37578 4.21982,0.38132 4.21983,0.38131 -9,-0.006 -9,-0.006 z m 150,0 4.78018,-0.37578 4.21982,0.38132 4.21983,0.38131 -9,-0.006 -9,-0.006 z M 1210.6603,926.5 V 926 h 0.5 0.5 v 0.5 0.5 h -0.5 -0.5 z m -668.55885,-2.05517 -1.94113,-1.55516 2.5,1.19062 2.5,1.19062 0.41667,0.36454 0.41666,0.36455 h -0.97553 -0.97554 z m 236.30887,0.81793 5.25,-0.36728 5.25,0.36728 5.25,0.36727 h -10.5 -10.5 z m 191,0 5.25,-0.36728 5.25,0.36728 5.25,0.36727 h -10.5 -10.5 z m 143.25828,-2.08778 7.5083,-2.71311 3.6901,-2.28059 3.6901,-2.28058 0.6419,-2.02252 0.6419,-2.02252 -0.6002,-2.3915 -0.6002,-2.3915 -4.2401,-2.43418 -4.2401,-2.43418 -6.2739,-2.24487 -6.274,-2.24487 -0.5453,0.54534 -0.5454,0.54534 1.312,2.10084 1.312,2.10083 -1.0836,1.74655 -1.0835,1.74654 -3.9092,2.17665 -3.9091,2.17665 -3,0.63833 -3,0.63834 5.7755,-2.46373 5.7756,-2.46372 1.4744,-1.22371 1.4745,-1.2237 v -1.5631 -1.56311 L 1104.486,899.31445 1102.3117,897 h 2.7066 2.7065 l 7.9202,3.05433 7.9201,3.05433 3.0476,2.84688 3.0476,2.84688 v 2.16453 2.16453 l -1.0184,1.90289 -1.0184,1.90288 -4.3115,2.52671 -4.3115,2.52672 -5.8266,2.00466 -5.8267,2.00466 -1.0934,-0.056 -1.0935,-0.056 z m 100.0751,2.46047 0.4166,-0.36454 2.5,-1.19062 2.5,-1.19062 -1.9411,1.55516 -1.9411,1.55517 h -0.9756 -0.9755 z m -451.83338,-1.36392 3.75,-0.39226 3.75,0.39226 3.75,0.39226 h -7.5 -7.5 z m 229.4777,0.007 3.22769,-0.40166 3.77231,0.39359 3.77228,0.39359 -6.99998,0.008 -7,0.008 z m -242.4777,-0.99453 2.75,-0.41659 2.75,0.41659 2.75,0.41659 h -5.5 -5.5 z m 256.99998,0 2.75,-0.41659 2.75,0.41659 2.75,0.41659 h -5.5 -5.5 z m -471.33719,-4.17825 -5.41279,-3.89451 -1.84743,-3.17473 -1.84744,-3.17472 0.50613,-0.50612 0.50613,-0.50613 0.62942,1.98313 0.62942,1.98314 4.21189,3.84222 4.21188,3.84223 2.5,1.69755 2.5,1.69755 -0.58721,0.0525 -0.58721,0.0525 z m 200.83721,3.17111 3.25,-0.40332 3.25,0.40332 3.25,0.40332 h -6.5 -6.5 z m 282.99998,0 3.25,-0.40332 3.25,0.40332 3.25,0.40332 h -6.5 -6.5 z m 203.25,-0.98029 2.5,-1.79631 4.2119,-3.84223 4.2119,-3.84222 0.6294,-1.98314 0.6294,-1.98313 0.5228,0.52276 0.5228,0.52276 -2.2044,3.56665 -2.2043,3.56664 -4.1597,2.81578 -4.1598,2.81577 -1.5,0.71649 -1.5,0.71649 z m -496.23832,-0.004 2.26166,-0.4349 1.73834,0.45508 1.73834,0.45508 -4,-0.0202 -4,-0.0202 z m 306.00002,0 2.2616,-0.4349 1.7384,0.45508 1.7383,0.45508 -4,-0.0202 -4,-0.0202 z m -539.76168,-1.29274 v -1.33333 l 0.66667,0.66666 0.66666,0.66667 -0.66666,0.66667 -0.66667,0.66666 z m 224.26375,0.28242 2.76375,-0.41792 2.23625,0.43157 2.23625,0.43156 -5,-0.0136 -5,-0.0136 z m 324.00003,0 2.7637,-0.41792 2.2363,0.43157 2.2362,0.43156 -5,-0.0136 -5,-0.0136 z m -332.50212,-0.98968 2.26166,-0.4349 1.73834,0.45508 1.73834,0.45508 -4,-0.0202 -4,-0.0202 z m 342.00002,0 2.2616,-0.4349 1.7384,0.45508 1.7383,0.45508 -4,-0.0202 -4,-0.0202 z m -354.26168,-1.29274 -4,-0.71619 3,-0.0843 3,-0.0843 4,0.82737 4,0.82737 -3,-0.0269 -3,-0.0269 z m 361.74998,0.31067 1.75,-0.45732 1.75,0.45732 1.75,0.45733 h -3.5 -3.5 z m -564.24998,-1.20107 v -1.33541 l 7.25,-7.13709 7.25,-7.1371 3.25,-1.80654 3.25,-1.80653 v 0.45229 0.45229 l -4.75,3.05363 -4.75,3.05363 -4.1022,4.30061 -4.1022,4.30062 -1.6478,2.47251 -1.6478,2.4725 z m 571.24998,0.20107 1.75,-0.45732 1.75,0.45732 1.75,0.45733 h -3.5 -3.5 z m 202.75,-0.20252 v -0.89184 l -4.6297,-5.14937 -4.6297,-5.14936 -4.6203,-3.20467 -4.6203,-3.20467 -8,-4.22492 -8,-4.22493 0.7785,-0.0292 0.7786,-0.0292 6.2214,3.13686 6.2215,3.13686 5.5753,3.78174 5.5752,3.78173 5.1748,5.66199 5.1747,5.66199 v 0.91942 0.91941 h -0.5 -0.5 z m -583.49998,-1.10815 -3,-0.76337 h 2.5 2.5 l 3,0.76337 3,0.76337 h -2.5 -2.5 z m 388.99998,0 3,-0.76337 h 2.5 2.5 l -3,0.76337 -3,0.76337 h -2.5 -2.5 z m -395.74998,-1.66228 1.25,-0.50439 1.25,0.50439 1.25,0.50438 h -2.5 -2.5 z m 404.99998,0 1.25,-0.50439 1.25,0.50439 1.25,0.50438 h -2.5 -2.5 z m -408.93748,-1.02083 1.3125,-0.52522 0.60417,0.60416 0.60416,0.60417 -1.91666,-0.079 -1.91667,-0.0789 z m 413.99998,0 1.3125,-0.52522 0.6042,0.60416 0.6042,0.60417 -1.9167,-0.079 -1.9167,-0.0789 z m -417.99998,-1 1.3125,-0.52522 0.60417,0.60416 0.60416,0.60417 -1.91666,-0.079 -1.91667,-0.0789 z m 421.99998,0 1.3125,-0.52522 0.6042,0.60416 0.6042,0.60417 -1.9167,-0.079 -1.9167,-0.0789 z m -565.65458,-7.31689 v -2.5 l 0.50438,1.25 0.50439,1.25 -0.50439,1.25 -0.50438,1.25 z m 709.99998,0 v -2.5 l 0.5044,1.25 0.5044,1.25 -0.5044,1.25 -0.5044,1.25 z m -374.84248,-0.74886 18.81541,-0.29575 18.18459,0.29631 18.1846,0.29631 -37,-5.6e-4 -37,-5.7e-4 z m -26.5654,-0.95687 2.25,-0.43337 2.25,0.43337 2.25,0.43336 h -4.5 -4.5 z m 84.51375,-0.0118 2.76375,-0.41792 2.23625,0.43157 2.23625,0.43156 -5,-0.0136 -5,-0.0136 z m -98.07834,-1.41794 -3.3146,-0.95514 0.3146,-1.63275 0.31459,-1.63276 2.90353,-0.77649 2.90353,-0.77649 7.09647,-0.51469 7.09647,-0.51469 -9.39148,1.44408 -9.39148,1.44408 -0.54185,0.54185 -0.54186,0.54185 0.99588,0.99588 0.99588,0.99588 5.93746,0.86551 5.93745,0.86551 -4,0.0318 -4,0.0317 z m 110.55605,0.12103 5.24145,-0.76498 1.50855,-0.57888 1.50854,-0.57888 v -0.95511 -0.95511 l -5.25,-1.04173 -5.25,-1.04173 4.83293,0.45769 4.83293,0.45769 0.91707,0.56678 0.91707,0.56678 v 1.39398 1.39398 l -3.75,1.04143 -3.75,1.04143 -3.5,-0.11918 -3.5,-0.11918 z m -404.73487,-0.58763 0.007,-0.89788 1.8524,-2.80945 1.8524,-2.80946 3.39101,-3.00989 3.39101,-3.00989 -2,0.45589 -2,0.45589 -2,0.6262 -2,0.6262 4,-1.90231 4,-1.90232 2.25,-0.67782 2.25,-0.67782 -0.0744,0.81739 -0.0744,0.81739 -5.1723,4.0542 -5.17229,4.0542 -2.25331,3.34368 -2.25331,3.34369 z m 706.49339,-2.71407 -2,-3.08691 -5.1756,-4.04845 -5.1756,-4.04845 -0.074,-0.81739 -0.074,-0.81739 2.25,0.67782 2.25,0.67782 4,1.90232 4,1.90231 -2,-0.6262 -2,-0.6262 -2,-0.45931 -2,-0.45931 3.6326,3.32276 3.6326,3.32277 1.7529,2.78121 1.7528,2.78121 -0.3854,0.35415 -0.3855,0.35416 z m -717.49998,-1.17875 v -0.47627 l 6.10119,-3.07987 6.10119,-3.07987 0.36669,0.36668 0.36668,0.36669 -6.46787,3.18945 -6.46788,3.18946 z m 406.75,-2.21079 2.25,-0.43337 2.25,0.43337 2.25,0.43336 h -4.5 -4.5 z m -77,-1.03467 6.25,-0.35504 6.25,0.35504 6.25,0.35504 h -12.5 -12.5 z m 55,0 6.25,-0.35504 6.25,0.35504 6.25,0.35504 h -12.5 -12.5 z m -24.97357,-0.9931 4.27644,-0.38408 3.72356,0.39069 3.72357,0.39068 -8,-0.007 -8,-0.007 z m -3.32941,-20.95219 -8.75338,-9.81431 -19.62348,-23.5 -19.62349,-23.5 -15.54057,-19.5 -15.54058,-19.5 -16.0332,-21 -16.03321,-21 -14.47006,-20 -14.47007,-20 -11.001,-16 -11.001,-16 -11.02103,-17 -11.02103,-17 -9.98831,-16.5 -9.9883,-16.5 -7.83297,-14 -7.83297,-14 -10.62255,-21.54977 -10.62254,-21.54977 -5.34448,-13.38253 -5.34447,-13.38252 -3.94115,-11.56771 -3.94115,-11.5677 -2.85099,-12 -2.85099,-12 -1.29276,-8 -1.29277,-8 0.10701,-18 0.10701,-18 1.66684,-12.5 1.66685,-12.5 2.45387,-11.5 2.45387,-11.5 3.59576,-11.5 3.59576,-11.5 3.98045,-9.99147 3.98045,-9.99147 6.91047,-13.61915 6.91047,-13.61916 7.90508,-11.88937 7.90507,-11.88938 8.46322,-10.5 8.46322,-10.5 13.92197,-13.53333 13.92196,-13.53333 11.6447,-8.7463 11.6447,-8.74631 10.81637,-6.64046 10.81638,-6.64046 14,-6.74477 14,-6.74476 12.5,-4.49737 12.5,-4.49736 14.5,-3.54373 14.5,-3.54372 11.5,-1.79405 11.5,-1.79405 h 29 29 l 12,1.8716 12,1.87161 15.07215,3.78218 15.07214,3.78218 13.92786,5.18815 13.92785,5.18815 15.05258,7.72013 15.0525,7.72013 11.4475,7.5948 11.4474,7.5948 10.5,8.46992 10.5,8.46993 13.5246,13.87321 13.5246,13.87321 9.0116,12 9.0116,12 5.7381,9.27864 5.7382,9.27865 5.8789,11.72135 5.8789,11.72136 3.4905,8.5 3.4906,8.5 3.7038,11.5 3.7038,11.5 2.8513,13 2.8514,13 1.6975,12.5 1.6975,12.5 0.041,19 0.041,19 -1.7479,9.5 -1.7478,9.5 -2.4492,9.71857 -2.4492,9.71857 -4.1306,12.28143 -4.1307,12.28143 -6.3639,15.29561 -6.364,15.29561 -10.3769,20.72593 -10.3769,20.72593 -9.4982,16.5645 -9.4983,16.56451 -9.7671,15.91396 -9.7671,15.91395 -14.2673,21.52202 -14.2673,21.52203 -16.736,23.47797 -16.7359,23.47798 -15.52763,20.5 -15.52765,20.5 -16.44726,20.83918 -16.44727,20.83918 -17.55934,21.16082 -17.55935,21.16082 -11.67893,13.5 -11.67892,13.5 -2.03707,1.81431 -2.03706,1.81431 z m 21.69533,-175.56505 9.44667,-7.25074 10.45549,-9.04766 10.45549,-9.04766 6.3164,-4.81114 6.3164,-4.81114 0.83489,-2.19595 0.8349,-2.19594 -0.72591,-3.94452 -0.72592,-3.94451 -4.1767,-8.5 -4.1767,-8.5 -4.90894,-6.5 -4.90894,-6.5 -6.59192,-7.5 -6.59193,-7.5 -2.74781,-5.5 -2.74782,-5.5 0.0749,-6.5 0.0748,-6.5 2.08453,-4.03252 2.08453,-4.03252 2.34062,-1.10737 2.34063,-1.10737 4.11602,-1.11011 4.11602,-1.11011 2.88398,-8.2e-4 2.88398,-8.2e-4 7.5,-1.55961 7.5,-1.55961 3,-1.74502 3,-1.74501 4.5,-5.60485 4.5,-5.60485 5.25,-9.95049 5.25,-9.9505 v -4.03345 -4.03346 l -2.81586,-2.85576 -2.81586,-2.85575 -5.29085,-4.3974 -5.29085,-4.3974 -3.56088,-5.56654 -3.56087,-5.56654 -3.90519,-9.03606 -3.90519,-9.03606 -2.9122,-4.56413 -2.9122,-4.56413 -7.90198,-5.65748 -7.90199,-5.65748 -2.9068,-4.38848 -2.90681,-4.38847 -1.32937,-4.02802 -1.32936,-4.02802 3.73053,-11.3619 3.73054,-11.36189 1.8926,-7.81335 1.89259,-7.81335 v -2.86926 -2.86927 l -2.0498,-0.65058 -2.04979,-0.65058 -5.48735,4.23346 -5.48734,4.23346 -16.21286,15.22769 -16.21286,15.2277 -20.05658,20.37204 -20.05658,20.37204 -4.99627,6.76962 -4.99627,6.76962 -6.72065,12.32397 -6.72064,12.32398 -2.2265,1.08325 -2.22651,1.08324 -8.5,1.11078 -8.5,1.11078 -5.5602,0.96238 -5.56019,0.96238 -12.93981,-8.2e-4 -12.9398,-8.2e-4 -7.5,-1.51551 -7.5,-1.51551 -7.19745,-3.59401 -7.19745,-3.59401 -6.10002,-6.35255 -6.10003,-6.35255 -3.97096,-8.4738 -3.97096,-8.47381 -2.04331,-8.20981 -2.0433,-8.20982 -0.18826,-13.26189 -0.18826,-13.26189 2.09502,-2.8416 2.09503,-2.8416 6.40497,-2.32081 6.40498,-2.32082 11.47114,-2.96878 11.47113,-2.96878 9.84316,-3.05803 9.84316,-3.05804 3.1857,-3.21195 3.18571,-3.21195 3.5,-6.19922 3.5,-6.19921 3.83996,-6.00905 3.83995,-6.00904 4.9981,-5.46872 4.9981,-5.46871 7.20363,-4.81809 7.20364,-4.81808 9.47937,-3.1433 9.47937,-3.1433 10.97894,-1.67089 10.97894,-1.67088 19.21078,0.0164 19.21078,0.0164 5.03922,1.10246 5.03922,1.10247 5.25,1.09259 5.25,1.0926 7.99184,3.01311 7.99185,3.01311 5.00815,2.52882 5.00816,2.52882 4.5,3.03628 4.5,3.03628 9.6679,8.31315 9.6679,8.31315 12.9523,14.26604 12.95231,14.26605 5.37979,6.41488 5.3798,6.41488 4.5,5.43958 4.5,5.43958 3.5,4.30472 3.49997,4.30472 11,13.31598 11,13.31599 5.6395,6.03409 5.6394,6.03409 6.6462,4.49075 6.6463,4.49074 0.4643,2.25 0.4643,2.25 0.4959,2.40781 0.496,2.40782 9.254,7.89538 9.2541,7.89538 3.1696,2.3254 3.1696,2.3254 2.3304,-0.62012 2.3304,-0.62013 10.9504,-15.73471 10.9503,-15.7347 6.3601,-11.02377 6.36,-11.02376 4.9215,-10.24538 4.9215,-10.24537 3.4974,-9.33774 3.4974,-9.33773 2.4031,-9.41689 2.4031,-9.41689 1.1999,-6 1.2,-6 0.9177,-4.19282 0.9176,-4.19282 V 378.8674 360.62042 l -1.1035,-6.0602 -1.1035,-6.06019 -2.4299,-10 -2.4298,-10 -5.0446,-10.5 -5.0445,-10.5 -5.6187,-8.45002 -5.6186,-8.45002 -10.2976,-10.65866 -10.2976,-10.65867 -8.7559,-6.24327 -8.7558,-6.24327 -7.5,-3.77485 -7.5,-3.77485 -9,-3.07669 -9,-3.07669 -13.8166,-2.54651 -13.8165,-2.5465 h -6.9919 -6.99186 l -7.19156,1.07532 -7.19155,1.07533 -10.31961,2.49284 -10.31961,2.49284 -10.21209,4.27849 -10.2121,4.27849 -6.96829,4.34774 -6.9683,4.34774 -5.5,4.22337 -5.5,4.22336 -10.59126,10.83224 -10.59127,10.83224 -3.53712,5 -3.53711,5 -3.13602,6.25 -3.13601,6.25 h -2.53212 -2.53211 l -1.70349,-3.06729 -1.70349,-3.06729 -5.55493,-8.45142 -5.55492,-8.45141 -7.70504,-8.41886 -7.70503,-8.41887 -8.24004,-6.62203 -8.24004,-6.62203 -8.12767,-4.93363 -8.12767,-4.93363 -10.22078,-4.10059 -10.22078,-4.1006 -14.60729,-2.90617 -14.60728,-2.90618 h -8.61937 -8.61938 l -10.92489,1.97708 -10.92489,1.97709 -9,2.61904 -9,2.61903 -10,4.774 -10,4.77399 -10,7.00237 -10,7.00236 -6.54125,6.39973 -6.54126,6.39973 -7.37273,9.8955 -7.37273,9.8955 -4.86386,9.23902 -4.86387,9.23901 -2.34602,6.89759 -2.34602,6.89759 -1.56104,7.94569 -1.56105,7.94568 -1.06508,6.6153 -1.06509,6.61529 v 12.06235 12.06234 l 1.01772,7.82236 1.01772,7.82236 2.0594,10.84376 2.05941,10.84377 3.24694,9.65623 3.24695,9.65624 4.82991,11.79356 4.82991,11.79357 6.71675,12.10107 6.71675,12.10106 8.37927,12.06415 8.37927,12.06415 6.11688,7.54122 6.11687,7.54122 12.38313,13.12208 12.38312,13.12209 17.28123,16.57989 17.28123,16.57989 15.64867,13.79802 15.64867,13.79803 8.61905,7.5 8.61904,7.5 14.82388,12.5 14.82389,12.5 8.12717,6.85271 8.12717,6.85271 16.86926,13.64729 16.86925,13.64729 2.63075,1.74473 2.63074,1.74474 2.09784,0.005 2.09784,0.005 z m 20.89748,-200.20127 -1.20507,-1.45202 0.65001,-2.04798 0.65001,-2.04799 h 1.89742 1.89743 l 1.10458,2.06392 1.10458,2.06392 -1.19184,1.43608 -1.19184,1.43608 h -1.25511 -1.25511 z m -130.747,-74.92649 0.90245,-2.70733 -0.61669,-2.45708 -0.61669,-2.45709 h -1.90837 -1.90837 l -2.07258,2.63486 -2.07258,2.63486 v 2.81545 2.81545 l 1.75,0.9919 1.75,0.9919 1.94519,-1.27779 1.9452,-1.2778 z"
         id="path426" /><path
         style="fill:#313131"
         d="m 834.66032,1006.417 -13.5,-0.3055 -24,-1.1057 -24,-1.1057 -20.5,-1.4844 -20.5,-1.4844 -15.5,-1.52062 -15.5,-1.52063 -12,-1.41252 -12,-1.41252 -7.5,-0.98507 -7.5,-0.98507 -10,-1.51625 -10,-1.51624 -12,-2.03763 -12,-2.03763 -16.5,-3.57371 -16.5,-3.5737 -7,-1.8113 -7,-1.81129 -10.87802,-3.1752 -10.87802,-3.17519 -11.5846,-4.47735 -11.58461,-4.47735 -8.84352,-4.6628 -8.84352,-4.6628 -6.31059,-5.20527 -6.31059,-5.20527 -2.63327,-5.28428 -2.63326,-5.28427 v -3.83577 -3.83578 l 1.42374,-3.40749 1.42374,-3.4075 4.32494,-4.69199 4.32493,-4.692 5.87872,-3.99216 5.87872,-3.99217 9.2383,-4.37622 9.23831,-4.37623 h 1.3132 1.3132 l -4.61552,4.42245 -4.61553,4.42245 -1.19525,3.9894 -1.19526,3.9894 2.20631,4.55761 2.2063,4.55762 4.9822,3.65727 4.98219,3.65726 7.69338,3.7375 7.69338,3.73749 9.5,3.09199 9.5,3.09198 9,2.45726 9,2.45726 12,2.57736 12,2.57737 11.71602,1.98637 11.71602,1.98636 13.78398,1.96114 13.78398,1.96114 8.5,1.05299 8.5,1.05299 14,1.44266 14,1.44266 12.5,1.07642 12.5,1.07641 14.5,1.00437 14.5,1.00437 35,1.47076 35,1.47076 h 45 45 l 35,-1.46927 35,-1.46928 20.49998,-1.50473 20.5,-1.50473 11,-0.99419 11,-0.99419 13.7811,-1.52813 13.7811,-1.52813 11.7189,-1.52026 11.7189,-1.52025 15.5,-2.5145 15.5,-2.5145 10,-2.02161 10,-2.02161 11.8593,-2.96219 11.8592,-2.96218 11.1408,-3.59246 11.1407,-3.59245 8,-3.90775 8,-3.90775 4.6198,-3.38564 4.6197,-3.38563 2.2621,-4.67297 2.2622,-4.67297 -1.1953,-3.9894 -1.1952,-3.9894 -4.6156,-4.42245 -4.6155,-4.42245 h 1.3132 1.3132 l 9.2383,4.37623 9.2383,4.37622 5.9755,4.05786 5.9755,4.05786 4.5858,5.10051 4.5858,5.10051 1.1828,3.58398 1.1828,3.58399 -0.4986,4.42312 -0.4985,4.42313 -2.8995,4.68981 -2.8995,4.68981 -5.662,4.56144 -5.6621,4.56144 -8.8439,4.66304 -8.844,4.66305 -11.5846,4.47735 -11.5846,4.47735 -10.8781,3.17519 -10.878,3.1752 -7,1.81129 -7,1.8113 -16.5,3.5737 -16.5,3.57371 -12,2.03763 -12,2.03763 -10,1.51624 -10,1.51625 -7.5,0.98507 -7.5,0.98507 -12,1.41252 -12,1.41252 -15.5,1.52506 -15.5,1.52509 -21.5,1.5084 -21.49998,1.5084 -19,1.0125 -19,1.0125 -48.5,0.3702 -48.5,0.3703 z m 12,-62.02163 -11.5,-0.32648 -28,-1.07553 -28,-1.07552 -20,-1.48771 -20,-1.48771 -9.5,-0.99612 -9.5,-0.99612 -12.5,-1.52151 -12.5,-1.52151 -6.5,-1.02917 -6.5,-1.02917 -12,-2.40473 -12,-2.40474 -9.17506,-2.88072 -9.17506,-2.88072 -4.50859,-2.64221 -4.50859,-2.64221 -0.65664,-2.0689 -0.65665,-2.0689 0.56483,-2.17783 0.56484,-2.17783 3.30897,-2.23057 3.30898,-2.23056 7.23239,-2.6702 7.23239,-2.67019 0.55338,0.55338 0.55339,0.55338 -1.312,2.10084 -1.31199,2.10083 1.08859,1.74655 1.08859,1.74654 3.90411,2.21781 3.90412,2.21781 10.5,2.50262 10.5,2.50262 9.5,1.51293 9.5,1.51293 12.7367,1.48656 12.73669,1.48655 19.26331,1.53717 19.2633,1.53716 31,1.48445 31,1.48444 h 53 53 l 31,-1.48444 31,-1.48445 19.26328,-1.53716 19.2633,-1.53717 12.7367,-1.48655 12.7367,-1.48656 9.5,-1.51293 9.5,-1.51293 10.5,-2.50262 10.5,-2.50262 3.9041,-2.21781 3.9042,-2.21781 1.0885,-1.74654 1.0886,-1.74655 -1.312,-2.10083 -1.312,-2.10084 0.5454,-0.54534 0.5453,-0.54534 6.274,2.24487 6.2739,2.24487 4.2401,2.43418 4.2401,2.43418 0.6002,2.3915 0.6002,2.3915 -0.6566,2.0689 -0.6567,2.0689 -4.4742,2.62205 -4.4742,2.62205 -8.7184,2.8037 -8.7185,2.80371 -12.491,2.50191 -12.491,2.50191 -6.5,1.02917 -6.5,1.02917 -12.5,1.52151 -12.5,1.52151 -9.5,0.99674 -9.5,0.99674 -20.49998,1.50375 -20.5,1.50375 -24,0.98958 -24,0.98958 -36,0.39576 -36,0.39577 z m -17.89776,-41.95556 -10.39777,-1.33531 -1.03557,-1.03557 -1.03557,-1.03557 0.51788,-0.51787 0.51787,-0.51788 10.41546,-1.41477 10.41546,-1.41477 22.5,-0.63293 22.5,-0.63292 21,1.01444 21,1.01444 6.25,1.14131 6.25,1.14132 v 0.83413 0.83414 l -1.02428,0.63303 -1.02427,0.63304 -11.72573,1.39479 -11.72572,1.39478 -36.5,-0.0813 -36.5,-0.0813 z"
         id="path425" /></g><image
       width="1920"
       height="1080"
       preserveAspectRatio="none"
       xlink:href="logo.png"
       id="image1"
       x="2133.4929"
       y="-86.723038" /><g
       id="g448"
       transform="matrix(0.94495773,0,0,0.79801396,-816.49006,-101.04343)"
       style="fill:#333333"><path
         style="fill:#333333"
         d="m 1218.373,851.59739 -13.9116,-16.25 -8.0214,-9.5 -8.0214,-9.5 -13.0099,-16 -13.0098,-16 -14.4864,-18.5 -14.4865,-18.5 -13.5191,-18 -13.5192,-18 -14.1176,-19.73561 -14.1176,-19.73561 -15.8917,-23.76439 -15.8916,-23.76439 -9.7865,-15.91395 -9.7864,-15.91396 -9.5235,-16.58604 -9.5236,-16.58605 -10.77089,-21.5 -10.771,-21.5 -5.9945,-14.5 -5.9946,-14.5 -4.0475,-12 -4.0474,-12 -2.5073,-9.72314 -2.5073,-9.72313 -1.743,-9.27687 -1.7431,-9.27686 -0.033,-19.5 -0.033,-19.5 1.3412,-10.5 1.3411,-10.5 2.4587,-12 2.4586,-12 3.4446,-11.73871 3.4446,-11.73871 4.0802,-10.26129 4.0801,-10.26129 6.2345,-12.5 6.2346,-12.5 6.1858,-9.80858 6.18569,-9.80858 5.3245,-7.19142 5.3245,-7.19142 5.3988,-6.5 5.3988,-6.5 8.5228,-8.86615 8.5227,-8.86616 11,-9.24421 11,-9.24421 7,-4.9408 7,-4.9408 9.1222,-5.62637 9.1222,-5.62637 11.0878,-5.56074 11.0877,-5.56073 8.2901,-3.41904 8.29,-3.41904 11,-3.56489 11,-3.5649 9,-2.12587 9,-2.12586 10.9583,-1.88132 10.9583,-1.88131 17.2031,-1.19019 17.2031,-1.19019 16.3386,1.16806 16.3386,1.16806 12,1.98738 12,1.98738 8.5,2.04395 8.5,2.04395 11,3.56288 11,3.56287 8.5,3.49365 8.5,3.49365 13.7914,7.0604 13.7914,7.06039 11.2086,7.46851 11.2086,7.46852 9,7.22972 9,7.22973 7.9216,7.40502 7.9216,7.40503 8.3373,9.35526 8.3374,9.35527 7.0324,9.35637 7.0324,9.35638 6.1638,9.78836 6.1638,9.78836 6.2157,12.5 6.2156,12.5 4.0657,10.23619 4.0657,10.23619 3.0494,10.26381 3.0494,10.26381 1.5227,6.5 1.5227,6.5 0.982,5 0.9821,5 1.4761,10.5 1.4762,10.5 0.6126,17 0.6126,17 -1.6936,11.5 -1.6937,11.5 -2.4148,10.25023 -2.4149,10.25023 -4.9364,14.74977 -4.9365,14.74977 -5.5589,13.17675 -5.5589,13.17676 -7.9848,16.32324 -7.9847,16.32325 -7.6635,14 -7.6634,14 -6.5162,11 -6.5163,11 -8.8082,14.18951 -8.8082,14.1895 -13.2108,19.8105 -13.2108,19.81049 -10.5325,15 -10.5326,15 -18.8714,25.35754 -18.8715,25.35753 -18.1763,23.14247 -18.1763,23.14246 -14.4264,17.5 -14.4263,17.5 -16.9127,19.75 -16.9128,19.75 h -0.2994 -0.2993 z"
         id="path448"
         sodipodi:nodetypes="ccccccccccccccccccccccccccccccccccccccccccccccccccccccccccccccccccccccccccccccccccccccccccccccccccccccccccccccccccccccccccccccccccccccc" /></g><path
       style="fill:#333333;stroke-width:0.867029"
       d="m 311.51465,693.76431 -11.7049,-0.26479 -20.8087,-0.95868 -20.8087,-0.95867 -17.7741,-1.28702 -17.7741,-1.28702 -13.43895,-1.3184 -13.43896,-1.3185 -10.40435,-1.22467 -10.40435,-1.22468 -6.50272,-0.85411 -6.50271,-0.85411 -8.67029,-1.31459 -8.6703,-1.31459 -10.40435,-1.76675 -10.40435,-1.76666 -14.30598,-3.09859 -14.30599,-3.0985 -6.0692,-1.57045 -6.06921,-1.57036 -9.43154,-2.753 -9.43159,-2.75299 -10.04419,-3.88203 -10.0442,-3.88195 -7.66759,-4.04279 -7.66759,-4.04278 -5.47147,-4.51315 -5.47146,-4.51315 -2.28312,-4.58164 -2.28312,-4.58156 v -3.32575 -3.32575 l 1.23443,-2.9544 1.23443,-2.9544 3.74984,-4.0681 3.74984,-4.0681 5.09702,-3.46127 5.09702,-3.46136 8.00989,-3.79429 8.00989,-3.79429 h 1.13858 1.13858 l -4.0018,3.83435 -4.00179,3.83443 -1.03633,3.45893 -1.03631,3.45893 1.91292,3.95157 1.91293,3.95157 4.31971,3.17099 4.31972,3.1709 6.67038,3.24052 6.6704,3.24052 8.23678,2.68086 8.23677,2.68085 7.80327,2.13046 7.80326,2.13056 10.40435,2.23468 10.40435,2.23459 10.15812,1.72227 10.15811,1.72227 11.95113,1.70033 11.95114,1.70033 7.36974,0.91298 7.36975,0.91298 12.13841,1.25086 12.1384,1.25078 10.83787,0.93336 10.83787,0.93327 12.57192,0.87076 12.57193,0.87084 30.34602,1.27523 30.34602,1.27514 h 39.01632 39.01634 l 30.3461,-1.27384 30.346,-1.27393 17.7741,-1.30462 17.7741,-1.3047 9.5373,-0.862 9.5372,-0.862 11.9486,-1.32491 11.9487,-1.32491 10.1606,-1.31814 10.1606,-1.31806 13.439,-2.18015 13.4389,-2.18014 8.6703,-1.75279 8.6703,-1.75278 10.2823,-2.56832 10.2824,-2.56831 9.6593,-3.11481 9.6594,-3.11471 6.9362,-3.38818 6.9362,-3.38809 4.0054,-2.9355 4.0056,-2.93541 1.9613,-4.05163 1.9613,-4.05154 -1.0363,-3.45893 -1.0364,-3.45893 -4.0017,-3.83443 -4.0018,-3.83435 h 1.1386 1.1385 l 8.0099,3.79429 8.0099,3.79429 5.1809,3.51832 5.1809,3.51823 3.976,4.42229 3.976,4.42237 1.0255,3.10734 1.0257,3.10743 -0.4323,3.83496 -0.4323,3.83505 -2.5139,4.06619 -2.514,4.06619 -4.9092,3.95487 -4.9091,3.95495 -7.668,4.04296 -7.668,4.04305 -10.0442,3.88195 -10.0442,3.88203 -9.4315,2.75299 -9.4316,2.753 -6.0692,1.57036 -6.0692,1.57045 -14.306,3.0985 -14.3059,3.09859 -10.4044,1.76666 -10.4043,1.76675 -8.6703,1.31459 -8.6703,1.31459 -6.5027,0.85411 -6.5028,0.85411 -10.4043,1.22468 -10.4044,1.22467 -13.4388,1.32231 -13.439,1.32222 -18.6411,1.30791 -18.6411,1.30783 -16.4736,0.87787 -16.4736,0.87786 -42.0509,0.32098 -42.05095,0.32097 z m 10.40435,-53.77455 -9.97084,-0.28308 -24.27682,-0.93249 -24.27682,-0.93249 -17.34058,-1.28988 -17.34059,-1.28988 -8.23677,-0.86374 -8.23678,-0.86364 -10.83787,-1.31919 -10.83786,-1.31918 -5.63569,-0.89235 -5.63569,-0.89226 -10.40436,-2.08503 -10.40434,-2.08495 -7.95508,-2.49765 -7.95499,-2.49774 -3.90909,-2.29086 -3.90909,-2.29087 -0.56938,-1.79379 -0.56929,-1.7938 0.4897,-1.88822 0.48978,-1.88821 2.86892,-1.934 2.869,-1.93399 6.2707,-2.31514 6.2707,-2.31515 0.47982,0.47982 0.47981,0.47981 -1.13754,1.82146 -1.13754,1.82154 0.94384,1.51427 0.94385,1.51435 3.38497,1.9229 3.38497,1.92289 9.1038,2.16983 9.10381,2.16983 8.23677,1.31181 8.23678,1.31173 11.04309,1.28884 11.0431,1.28893 16.70184,1.33279 16.70185,1.33272 26.8779,1.2871 26.87791,1.28702 h 45.95255 45.95264 l 26.8779,-1.28702 26.8779,-1.2871 16.7018,-1.33272 16.7019,-1.33279 11.0431,-1.28893 11.043,-1.28884 8.2367,-1.31173 8.2368,-1.31181 9.1038,-2.16983 9.1038,-2.16983 3.385,-1.92289 3.385,-1.9229 0.9438,-1.51435 0.9439,-1.51427 -1.1376,-1.82154 -1.1375,-1.82146 0.4729,-0.47279 0.4728,-0.47288 5.4396,1.9464 5.4397,1.94639 3.6763,2.11044 3.6762,2.11052 0.5205,2.0735 0.5204,2.0735 -0.5694,1.7938 -0.5693,1.79379 -3.8792,2.27344 -3.8793,2.27335 -7.5592,2.43089 -7.5591,2.43089 -10.83,2.16922 -10.8301,2.16931 -5.6357,0.89226 -5.6357,0.89235 -10.8378,1.31918 -10.8378,1.31919 -8.2368,0.86425 -8.2368,0.86417 -17.7741,1.30375 -17.7741,1.30384 -20.8087,0.85801 -20.8087,0.85801 -31.2131,0.34309 -31.21305,0.34317 z m -15.51792,-36.37673 -9.01511,-1.15774 -0.89789,-0.89781 -0.8979,-0.8979 0.44904,-0.44903 0.44903,-0.44904 9.03046,-1.22658 9.03054,-1.22668 19.50816,-0.54874 19.50818,-0.54874 18.2076,0.87951 18.2077,0.87952 5.4189,0.98954 5.4189,0.98962 v 0.72319 0.72319 l -0.8881,0.54892 -0.8881,0.54883 -10.1665,1.20933 -10.1665,1.20933 -31.64664,-0.0702 -31.64657,-0.0702 z"
       id="path428" /><g
       id="g430"
       transform="matrix(1.090789,0,0,1.1447495,-1427.2139,-235.28581)"><g
         id="g432"><path
           style="fill:#f5b234"
           d="m 1677.3966,579.84312 0.9237,-1.54202 10.5,-13.1891 10.5,-13.1891 5.2794,-8.6874 5.2793,-8.6874 1.5934,-5.4812 1.5934,-5.48121 -0.5339,-5.88853 -0.534,-5.88852 -2.5899,-3.91361 -2.5899,-3.9136 -3.7489,-1.86256 -3.7489,-1.86256 -5,-1.29848 -5,-1.29847 -9.5,-3.88173 -9.5,-3.88174 -5.7904,-4.33494 -5.7904,-4.33493 -3.0659,-4.16896 -3.0658,-4.16895 -1.8937,-4.98382 -1.8938,-4.98382 v -4.54646 -4.54645 l 1.1352,-4.69282 1.1352,-4.69282 6.3928,-16.17022 6.3928,-16.17023 2.0995,-8.30248 2.0995,-8.30249 -0.5675,-7.50402 -0.5675,-7.50403 -4.5172,-9.02326 -4.5172,-9.02327 -5.8052,-7.68881 -5.8051,-7.68881 -8.2376,-8.98273 -8.2377,-8.98272 v -1.04448 -1.04449 l 7.4614,-8.893 7.4614,-8.89301 8.2886,-7.01303 8.2886,-7.01304 5.947,-3.78468 5.947,-3.78467 9.053,-4.28143 9.053,-4.28142 8.5068,-2.45892 8.5067,-2.45892 9.9076,-1.24708 9.9077,-1.24709 11.0856,0.6034 11.0856,0.6034 9.5,2.4256 9.5,2.4256 8.1421,3.14623 8.1421,3.14623 8.0575,4.84268 8.0574,4.84267 6.5147,5.18388 6.5147,5.18389 6.1556,6.69238 6.1556,6.69237 4.7418,7 4.7418,7 3.7771,7.5 3.777,7.5 2.4269,6.44687 2.4268,6.44687 1.9047,8.05313 1.9047,8.05313 1.0864,11.75618 1.0865,11.75618 -1.0087,10.80388 -1.0088,10.80389 -1.6134,7.93993 -1.6134,7.93994 -3.9767,12 -3.9768,12 -5.4825,11.16356 -5.4826,11.16357 -8.8362,13.33643 -8.8362,13.33644 -4.6766,5 -4.6765,5 3.1057,-6.35647 3.1056,-6.35648 2.07,-7.64352 2.07,-7.64353 0.1119,-18 0.1118,-18 -1.8548,-8 -1.8548,-8 -2.9519,-7.70855 -2.9519,-7.70856 -5.0392,-7.71928 -5.0392,-7.71929 -4.5375,-5.25585 -4.5376,-5.25584 -6.2825,-5.09726 -6.2825,-5.09725 -8.0588,-11.40425 -8.0588,-11.40426 -7.9871,-9.92963 -7.9871,-9.92963 -5.6187,-5.13518 -5.6187,-5.13517 h -2.8964 -2.8963 l -1.7731,2.70384 -1.7731,2.70384 -0.3429,19.04616 -0.343,19.04616 -0.9232,1.12189 -0.9231,1.12188 -6.2339,2.26717 -6.2339,2.26717 -7.5845,7.61095 -7.5845,7.61094 -4.0496,7 -4.0497,7 -4.2421,10 -4.2421,10 -2.7782,4 -2.7783,4 -3.6808,3.5 -3.6808,3.5 -1.4147,2.70034 -1.4147,2.70034 v 1.9153 1.91531 l 3.6155,7.22687 3.6155,7.22687 5.3256,5.24119 5.3256,5.2412 6.5652,3.23204 6.5652,3.23204 7.7437,1.4676 7.7437,1.4676 3.8122,1.02542 3.8122,1.02541 3.8782,3.50375 3.8782,3.50375 1.6829,5.06652 1.6828,5.06653 -0.4669,7.27561 -0.4669,7.27561 -3.6591,7.7049 -3.659,7.70489 -3.1591,4.14046 -3.1591,4.14045 -12.0882,12.31965 -12.0882,12.31965 -3.9237,3.15196 -3.9237,3.15196 z m 19.9458,-143.1512 -2.5896,-2.25 -0.5655,-3.55532 -0.5655,-3.55532 2.6882,-3.19468 2.6881,-3.19468 h 2.8554 2.8553 l 2.7831,2.39387 2.783,2.39386 v 4.21227 4.21227 l -2.783,2.39386 -2.7831,2.39387 h -2.3885 -2.3884 z"
           id="path432" /><path
           style="fill:#2b88bb"
           d="m 1612.614,699.69555 -11.4141,-12.25 -34.5398,-38 -34.5398,-38 -27.7023,-30 -27.7022,-30 -1.0952,-1.95978 -1.0952,-1.95978 14.3975,13.35328 14.3974,13.35329 17,14.18254 17,14.18255 21,16.48081 21,16.48081 12,9.01423 12,9.01422 11.3434,8.26389 11.3434,8.26388 2.1566,-0.55884 2.1566,-0.55884 27.0037,-20.27613 27.0036,-20.27613 16.9964,-13.42611 16.9963,-13.4261 14.5,-11.99731 14.5,-11.99731 7.5,-6.59818 7.5,-6.59819 1.9138,-1.4784 1.9137,-1.4784 -1.1093,2 -1.1092,2 -10.1948,11 -10.1948,11 -39.6097,43.51062 -39.6097,43.51062 -16.242,18.12936 -16.2421,18.12935 -1.5897,0.61003 -1.5897,0.61002 h -2.3144 -2.3143 z m 1.0599,-92.5 -12.3941,-13.75 -7.5531,-8.5 -7.5532,-8.5 -10.0201,-12 -10.0201,-12 -8.0232,-10.83141 -8.0233,-10.83141 -4.5695,-8.16859 -4.5696,-8.16859 -2.6732,-8 -2.6733,-8 0.4305,-8.5 0.4304,-8.5 2.0944,-4 2.0944,-4 3.8347,-3.70117 3.8347,-3.70118 4,-1.70508 4,-1.70508 19,-0.73324 19,-0.73323 6.7501,-1.59612 6.75,-1.59612 6.1985,-3.129 6.1985,-3.12899 5.0515,-5.2264 5.0514,-5.22641 3.4169,-5.7329 3.4169,-5.7329 3.3115,-8.81618 3.3114,-8.81618 0.6121,-5.35991 0.6121,-5.35991 -1.0458,-2.6977 -1.0458,-2.6977 -2.4108,-1.57961 -2.4108,-1.57961 -14.3838,-2.40993 -14.3839,-2.40993 -6.2141,-1.94676 -6.2142,-1.94675 -4.2871,-2.51236 -4.287,-2.51236 -1.8197,-2.01076 -1.8197,-2.01076 -1.8919,-7.57057 -1.8918,-7.57056 -1.6795,-3.27232 -1.6795,-3.27232 -6.6282,-6.53093 -6.6281,-6.53094 -8.4796,-4.19813 -8.4796,-4.19812 -8,-2.16503 -8,-2.16502 -16,-0.0759 -16,-0.0759 -6.9723,1.7572 -6.9724,1.7572 -7.2232,3.47424 -7.2233,3.47425 -8.7275,8.23857 -8.7274,8.23858 -7.1208,9.54441 -7.1208,9.54441 -4.8003,8.32226 -4.8003,8.32226 -2.8461,6.34338 -2.8461,6.34337 -3.2731,9.78996 -3.2732,9.78995 -0.024,16.5 -0.024,16.5 2.2447,7.78798 2.2447,7.78798 2.3783,5.71202 2.3783,5.71202 2.6017,5.75 2.6017,5.75 h -0.3699 -0.3699 l -4.0621,-6.25 -4.062,-6.25 -6.0112,-12.5 -6.0112,-12.5 -3.0718,-9.22958 -3.0717,-9.22959 -2.043,-9.27041 -2.0431,-9.27042 -0.5419,-17.5 -0.5419,-17.5 1.5927,-9.13569 1.5926,-9.13569 2.6098,-8.36431 2.6098,-8.36431 4.4449,-8.887 4.4449,-8.88699 5.2151,-7.59802 5.2151,-7.59802 9,-9.03328 9,-9.03328 7.7665,-5.30292 7.7664,-5.30292 9.2336,-4.36694 9.2335,-4.36695 8.7576,-2.53161 8.7576,-2.53162 8.2162,-1.03023 8.2162,-1.03022 h 9.6452 9.6453 l 8.6398,1.50666 8.6398,1.50666 9.2412,3.00783 9.2411,3.00783 8.2359,4.23551 8.236,4.23551 9.2491,6.5 9.2491,6.5 14.0534,14 14.0534,14 8.8558,10 8.8557,10 4.9764,7 4.9764,7 3.9476,8.13235 3.9477,8.13236 0.5592,7.39493 0.5593,7.39494 -2.0995,8.30249 -2.0995,8.30248 -6.3928,16.17023 -6.3928,16.17022 -1.1352,4.69282 -1.1352,4.69282 v 4.54645 4.54646 l 1.8937,4.98382 1.8937,4.98382 3.0659,4.16895 3.0659,4.16896 5.7904,4.33493 5.7904,4.33494 9.5,3.88174 9.5,3.88173 5,1.29847 5,1.29848 3.7489,1.86256 3.7489,1.86256 2.5899,3.9136 2.5899,3.91361 0.534,5.88852 0.5339,5.88853 -1.5801,5.42812 -1.58,5.42811 -5.083,8.5 -5.083,8.5 -13.3928,16.82013 -13.3928,16.82012 -8.1698,7.07144 -8.1698,7.07144 -13.5609,10.85844 -13.561,10.85843 h -1.7123 -1.7123 z m -134.3536,-134.2484 -7,-0.76819 -8,-2.67447 -8,-2.67447 -6.5,-3.8389 -6.5,-3.8389 -5.5757,-5.85334 -5.5758,-5.85333 -1.8208,-4.77801 -1.8208,-4.77801 0.5832,-8.22199 0.5832,-8.22199 3.1776,-9 3.1777,-9 2.9954,-6 2.9954,-6 5.6106,-8.5 5.6106,-8.5 8.4097,-8.73687 8.4096,-8.73686 6.0298,-3.01314 6.0298,-3.01313 h 2.3899 2.39 l 2.8312,1.46408 2.8312,1.46409 2.5414,3.02032 2.5415,3.02031 2.1738,5.7656 2.1739,5.7656 3.3928,13 3.3927,13 2.6415,15.5 2.6414,15.5 0.1196,12.5 0.1196,12.5 -1.8025,4.6711 -1.8026,4.67111 -4.3568,4.01594 -4.3568,4.01595 -3.8406,0.98244 -3.8407,0.98243 -4,0.46541 -4,0.46541 z m 74.729,-79.67089 -1.271,-0.5114 -1.5675,-3.03114 -1.5675,-3.03113 0.6257,-3.33519 0.6257,-3.33519 2.5977,-2.04333 2.5977,-2.04333 h 2.3093 2.3094 l 2.6921,2.31567 2.6922,2.31567 v 4.22473 4.22472 l -2.3107,2.45961 -2.3107,2.4596 -3.0757,-0.0789 -3.0757,-0.0789 z"
           id="path431"
           sodipodi:nodetypes="cccccccccccccccccccccccccccccccccccccccccccccccccccccccccccccccccccccccccccccccccccccccccccccccccccccccccccccccccccccccccccccccccccccccccccccccccccccccccccccccccccccccccccccccccccccccccccccccccccccccccccccccccccccccccccccccccccccccccccccccccccccccccccccccccccccccccccccccccc" /></g></g></g></svg>
